<svg xmlns="http://www.w3.org/2000/svg" viewBox="0 0 512 512" xmlns:v="https://vecta.io/nano"><path d="M452.515 237l31.843-18.382c9.426-5.44 13.996-16.542 11.177-27.054-11.404-42.53-33.842-80.547-64.058-110.797-7.68-7.688-19.575-9.246-28.985-3.81l-31.785 18.358a196.276 196.276 0 0 0-32.899-19.02V39.54a24.016 24.016 0 0 0-17.842-23.206 249.61 249.61 0 0 0-127.93-.001 24.02 24.02 0 0 0-17.844 23.206v36.753a196.276 196.276 0 0 0-32.899 19.02l-31.785-18.358c-9.4-5.435-21.305-3.877-28.985 3.81-30.216 30.25-52.654 68.265-64.058 110.797-2.82 10.512 1.75 21.613 11.177 27.054L59.485 237a197.715 197.715 0 0 0 0 37.999L27.642 293.38c-9.426 5.44-13.996 16.542-11.177 27.054 11.404 42.53 33.842 80.547 64.058 110.797 7.68 7.688 19.575 9.246 28.985 3.81l31.785-18.358a196.202 196.202 0 0 0 32.899 19.019v36.753a24.016 24.016 0 0 0 17.842 23.206 249.6 249.6 0 0 0 127.93.001 24.02 24.02 0 0 0 17.844-23.206v-36.753a196.34 196.34 0 0 0 32.899-19.019l31.785 18.358c9.4 5.435 21.305 3.877 28.985-3.81 30.216-30.25 52.654-68.266 64.058-110.797 2.82-10.512-1.75-21.613-11.177-27.054L452.515 275c1.22-12.65 1.22-25.35 0-38zm-52.68 63.02l43.82 25.29a200.138 200.138 0 0 1-33.849 58.528l-43.83-25.31c-31.984 27.397-36.66 30.077-76.168 44.03v50.6a200.917 200.917 0 0 1-67.618 0v-50.6c-39.504-13.95-44.196-16.642-76.168-44.03l-43.83 25.31a200.15 200.15 0 0 1-33.849-58.528l43.82-25.29c-7.63-41.3-7.634-46.72 0-88.038l-43.82-25.29c7.85-21.23 19.3-41.05 33.85-58.53l43.83 25.31c31.984-27.397 36.66-30.078 76.168-44.03V58.845a200.917 200.917 0 0 1 67.618 0v50.6c39.504 13.95 44.196 16.642 76.168 44.03l43.83-25.31a200.143 200.143 0 0 1 33.849 58.529l-43.82 25.29c7.63 41.3 7.634 46.718 0 88.037zM256 160c-52.935 0-96 43.065-96 96s43.065 96 96 96 96-43.065 96-96-43.065-96-96-96zm0 144c-26.468 0-48-21.532-48-48s21.532-48 48-48 48 21.533 48 48-21.532 48-48 48z"/></svg>