<svg xmlns="http://www.w3.org/2000/svg" viewBox="0 0 500 500" xmlns:v="https://vecta.io/nano"><path d="M15.2 240.8h10.3c16-.4 17.9-2.5 17.3-20.6V91.6c.3-18.1-1.9-19.7-17.2-20H15.2v-30h115.6c43 0 67.7 3.2 88.8 21.7 22.6 20.3 34.2 51.6 34.2 92.8 0 41.6-11.6 73.2-34.2 93.1-21 18.5-45.8 25.6-88.8 25.6H15.2v-34zm115.2-1.1c15.7 0 28.2-7.2 33.9-20.7 5.6-13.5 8.8-35.2 8.8-62.9 0-27.4-3.1-48.7-8.8-62.6-5.6-13.5-18.2-20.7-33.9-20.7h-18v167l18-.1zM353.1 75.6c-18 .7-19.6 2.4-18.9 20.1v54.2l60.5-59c2.9-2.2 4.7-5.4 5.1-9 0-4.1-4.5-6.2-12.8-6.2h-17.7v-34h119.6v33.9h-11.4c-6.7-.4-18.6 6.7-30.2 17.5l-43 40 57.8 93.5c7.7 11.8 13.8 16 23.1 15.6h3.7v32.7H365.8V242h10.3c11.2 0 15.1-1.7 15.1-6.6-.2-2.9-1.1-5.8-2.6-8.3L357 175.6l-23 26.7v19.5c-.7 17.4 1.3 19.8 17 20.1h7.1v32.8H236.3V242h10.6c15.7-.4 18-2.4 17.6-20.1V95.8c.3-17.4-2-19.8-17.6-20.1h-10.6v-34h116.8v33.9z" fill="#2c2c2c"/><path d="M46.6 297.3c6.6 0 9.8 3.4 9.8 10.6v13.9c0 7.2-3.2 10.6-9.8 10.6H30.7v8.4h7.5v11.1H11.1v-11.1h6v-32.4h-6v-11.1h35.5zm-3.8 13.2c0-1.1-.3-1.4-1.3-1.4H30.7v11.4h10.9c1 0 1.3-.3 1.3-1.4l-.1-8.6zm36.4 30.3h6.5v11.1H59.2v-11.1h6.5v-32.4h-6.5v-11.1h26.5v11.1h-6.4l-.1 32.4zm46.1-32h-5.8v32h6.5v11.1H99.5v-11.1h6.5v-32h-5.8v9.2H89.3v-20.7H136V318h-10.8l.1-9.2zm50 0h-5.8v32h6.5v11.1h-26.5v-11.1h6.5v-32h-5.8v9.2h-10.8v-20.7h46.8V318h-10.8l-.1-9.2zm40.3 1.6c0-1.1-.3-1.4-1.3-1.4h-9.4c-1 0-1.3.3-1.3 1.4v4.2c0 .9.2 1.1 1.5 1.5l14.4 3.9c7.1 1.9 10.4 3.4 10.4 11.2v10c0 7.2-3.2 10.6-9.8 10.6h-20.3c-6.6 0-9.8-3.4-9.8-10.6v-7.5h13.5v5c0 1.1.3 1.4 1.3 1.4h10.3c1 0 1.3-.3 1.3-1.4V334c0-.9-.4-1.1-1.5-1.4l-14.4-4c-7.1-2-10.4-3.4-10.4-11.2v-9.6c0-7.2 3.2-10.6 9.8-10.6h19.5c6.6 0 9.8 3.4 9.8 10.6v6.9h-13.5l-.1-4.3zm18.1-2.1v-11.1h34.9c6.6 0 9.8 3.4 9.8 13.6 0 8.7-1 12-5.8 13 5.2.6 6.4 5.1 6.4 13.6 0 10.8-3.2 14.2-9.8 14.2h-35.5v-11.1h6v-32.4l-6 .2zm29.8 10.7c1 0 1.3-.5 1.3-5.1s-.3-5.1-1.3-5.1h-10.3V319h10.3zm.6 21.5c1 0 1.3-.5 1.3-5.8s-.3-5.8-1.3-5.8h-10.9v11.5l10.9.1zm63.9-32.2v32.9c0 6.9-3.4 10.6-9.8 10.6h-19.8c-6.3 0-9.8-3.7-9.8-10.6v-32.9h-6.1v-11.1h23.9v11.1h-4.3v29.5c0 .9.4 1.4 1.3 1.4h9.8c.9 0 1.3-.5 1.3-1.4v-29.5h-4.3v-11.1H334v11.1h-6zm58.1 43.6h-15l-8.4-20.5h-5.6v9.4h4.8v11.1h-24.3v-11.1h6v-32.4h-6v-11.1h35.6c6.6 0 9.8 3.4 9.8 10.6v11c0 6.3-2.4 9.7-7.3 10.5l4.7 11.5h5.8V352l-.1-.1zM368 320.3c1 0 1.3-.3 1.3-1.4v-8.5c0-1.1-.3-1.4-1.3-1.4h-10.9v11.3H368zm48.8-9.6c0-1.1-.3-1.4-1.3-1.4h-11.2c-1 0-1.3.3-1.3 1.4v27.7c0 1.1.3 1.4 1.3 1.4h11.3c1 0 1.3-.3 1.3-1.4v-6.9h-8.1V320h21.4v21.2c0 7.2-3.2 10.6-9.8 10.6h-21.2c-6.6 0-9.8-3.4-9.8-10.6v-33.4c0-7.2 3.2-10.6 9.8-10.6h21.2c6.6 0 9.8 3.4 9.8 10.6v7.4h-13.4v-4.5zm66 30.1h6.1v11.1h-24.2v-11.1h4.6v-10.9h-14.8v10.9h4.6v11.1H435v-11.1h6.1v-32.4h-6v-11.1h24.2v11.1h-4.6v9.7h14.8v-9.7h-4.6v-11.1H489v11.1h-6.1l-.1 32.4z" fill="#f2b743"/><path d="M55.6 387.7c0-1.8-.5-2.4-2.2-2.4H37.3c-1.7 0-2.2.5-2.2 2.4v7.2c0 1.5.4 1.8 2.6 2.5l24.5 6.6c12 3.3 17.7 5.8 17.7 19.2v17.2c0 12.3-5.4 18.1-16.7 18.1H28.5c-11.3 0-16.7-5.8-16.7-18.1v-12.7h23.1v8.5c0 1.8.5 2.4 2.2 2.4h17.6c1.7 0 2.2-.5 2.2-2.4V428c0-1.5-.6-1.8-2.6-2.4l-24.5-6.8c-12-3.3-17.7-5.8-17.7-19.2v-16.2c0-12.3 5.4-18.1 16.7-18.1H62c11.3 0 16.7 5.8 16.7 18.1v11.8h-23l-.1-7.5zm92-22.4c11.3 0 16.7 5.8 16.7 18.1v23.7c0 12.3-5.4 18.1-16.7 18.1h-27.2v14.3h12.8v18.9H87.1v-18.9h10.3v-55.3H87.1v-18.9h60.5zm-6.3 22.7c0-1.8-.5-2.4-2.2-2.4h-18.5V405h18.6c1.7 0 2.2-.5 2.2-2.4l-.1-14.6zm48.1 70.4c-11.3 0-16.7-5.8-16.7-18.1v-56.9c0-12.3 5.4-18.1 16.7-18.1h36.9c11.3 0 16.7 5.8 16.7 18.1v56.9c0 12.3-5.4 18.1-16.7 18.1h-36.9zm6.4-23.1c0 1.8.5 2.4 2.2 2.4h19.8c1.7 0 2.2-.5 2.2-2.4v-46.8c0-1.8-.5-2.4-2.2-2.4H198c-1.7 0-2.2.5-2.2 2.4v46.8zm137.7 23.1H308l-14.3-35h-9.6v16.1h8.1v18.9h-41.5v-18.9H261v-55.3h-10.3v-18.9h60.7c11.3 0 16.7 5.8 16.7 18.1v18.8c0 10.7-4.1 16.5-12.5 17.9l8.1 19.6h9.9l-.1 18.7zm-30.7-53.8c1.7 0 2.2-.5 2.2-2.4v-14.5c0-1.8-.5-2.4-2.2-2.4h-18.7v19.3h18.7zm93.1-19.6h-10v54.5H397v18.9h-45.2v-18.9h11.1V385H353v15.7h-18.4v-35.4h79.8v35.4H396V385h-.1zm68.7 2.7c0-1.8-.5-2.4-2.2-2.4h-16.1c-1.7 0-2.2.5-2.2 2.4v7.2c0 1.5.4 1.8 2.6 2.5l24.5 6.6c12 3.3 17.7 5.8 17.7 19.2v17.2c0 12.3-5.4 18.1-16.7 18.1h-34.7c-11.3 0-16.7-5.8-16.7-18.1v-12.7h23.1v8.5c0 1.8.5 2.4 2.2 2.4h17.7c1.7 0 2.2-.5 2.2-2.4V428c0-1.5-.6-1.8-2.6-2.4l-24.5-6.8c-12-3.3-17.7-5.8-17.7-19.2v-16.2c0-12.3 5.4-18.1 16.7-18.1H471c11.3 0 16.7 5.8 16.7 18.1v11.8h-23.1v-7.5z" fill="#02558f"/></svg>