<svg xmlns="http://www.w3.org/2000/svg" viewBox="0 0 1484.7 316" xmlns:v="https://vecta.io/nano"><path d="M20.8 266.8h13.6c21.1-.5 23.5-3.3 22.7-27.2V70.5c.4-23.9-2.5-25.9-22.7-26.4H20.8V4.6H173c56.6 0 89.2 4.2 116.9 28.5 60.1 70.5 60.1 174.2 0 244.8-33 26.1-75 38.2-116.9 33.7H20.8v-44.8zm151.8-1.4c19.1 1.2 37-9.7 44.6-27.3a301.13 301.13 0 0 0 0-165.2c-7.6-17.6-25.5-28.5-44.6-27.3h-23.7v219.9l23.7-.1zM465.8 49.3c-23.7.9-25.8 3.2-24.9 26.5v71.3l79.7-77.7c3.8-2.9 6.2-7.2 6.7-11.9 0-5.5-5.9-8.3-16.9-8.3h-23.3V4.5h157.3v44.6h-15c-15.4 3.2-29.3 11.3-39.8 23L533 124.7l76 123.1c10.2 15.6 18.2 21.1 30.4 20.6h4.9v43h-162v-43h13.5c14.8 0 19.9-2.3 19.9-8.7-.3-3.9-1.4-7.6-3.4-11L470.9 181l-30.3 35.3V242c-.8 23 1.7 26.1 22.4 26.5h9.3v43H311.8v-43h13.9c20.7-.5 23.6-3.2 23-26.5V75.9c.4-23-2.5-26.1-23-26.5h-13.9V4.6h153.8l.2 44.7zm318.1 193.2c-.4 23 2.5 25.6 23.2 26.1h16.1v43H653.8v-43h13.9c20.7-.5 23.6-3.2 23.2-26.1V75.9c.4-23.3-2.5-26.2-23.2-26.9h-13.9V4.4h165c31.6-3.8 63.4 4.9 88.7 24.2 17.3 16.3 26.8 39.4 25.8 63.2 1 24.4-9.1 48-27.5 64.1-25.6 17.1-56.5 24.4-87 20.6H784l-.1 66zm19.4-103.6c19.2 0 33-11.9 33-44.4S828 51 805 51h-20.6v87.9h18.9zm178.5 65c4.4 18.4 13.9 35.3 27.3 48.7 16.3 11.6 36.3 16.9 56.2 14.7 24.1 0 39.7-12.2 39.7-30.4 0-6.1-2.1-11.9-6-16.5-8-8.3-10.9-9.6-51-21.3a336.97 336.97 0 0 1-80.3-31.8c-20.5-15.5-32.1-40-31.3-65.6 0-59.2 43.7-97 112-97 29.7-.3 58.9 7.1 85 21.3l7.3-14.4h38.1v100.9h-44.5c-2.7-16.8-10.8-32.2-23-43.9-13.3-11.6-30.5-17.9-48.2-17.4-26.5 0-43.7 12.6-43.7 31.3 0 6.4 2.8 12.5 7.7 16.5 8.4 6.1 8.4 6.1 53.4 16.5 28.8 4.7 56.2 15.7 80.3 32.2 20.4 16.7 32 41.9 31.3 68.3 0 58.3-44.1 95.7-113.6 95.7-30.5 3.2-61.3-2.3-88.7-16l-10 16.1h-36.6v-108l38.6.1z" fill="#06558f"/><path d="M1463.857 120.712h-74.7v-74.7h-80.6v74.7h-74.6v80.6h74.6v74.7h80.6v-74.7h74.7v-80.6z" fill="#f4a62e"/></svg>