<svg xmlns="http://www.w3.org/2000/svg" viewBox="0 0 640 512" xmlns:v="https://vecta.io/nano"><path d="M606.72 147.9l-258-79.57a97.3 97.3 0 0 0-57.44 0l-258 79.57C13.38 154.05 0 171.77 0 192.02s13.38 37.97 33.28 44.1l22.64 6.98c-2.46 5.2-4.4 10.62-5.7 16.3C39.53 264.6 32 275.33 32 288c0 10.78 5.68 19.85 13.86 25.65L20.33 428.53C18.1 438.52 25.7 448 35.95 448h56.1c10.24 0 17.84-9.48 15.62-19.47L82.14 313.66C90.3 307.86 96 298.8 96 288c0-10.6-5.5-19.54-13.43-25.36 1.13-3.55 2.96-6.67 4.85-9.83l54.87 16.92L128 384c0 35.34 85.96 64 192 64s192-28.65 192-64l-14.28-114.26 109-33.62c19.9-6.14 33.28-23.86 33.28-44.1s-13.38-37.96-33.28-44.1zM462.44 374.47c-59.7 34.2-225.9 33.78-284.87 0l11.3-90.36 102.42 31.6c11.15 3.43 32.24 7.77 57.44 0l102.42-31.6 11.3 90.36zM334.6 269.82c-9.44 2.9-19.75 2.9-29.2 0L154.62 223.3l168.3-31.56a15.99 15.99 0 0 0 12.78-18.67c-1.62-8.72-10.1-14.36-18.66-12.76l-203.78 38.2c-6.64 1.24-12.8 3.54-18.7 6.27L53.2 192l252.22-77.8c9.44-2.9 19.75-2.9 29.2 0l252.22 77.82-252.23 77.8z"/></svg>