<?xml version="1.0" encoding="utf-8"?>
<!-- Generator: Adobe Illustrator 24.2.3, SVG Export Plug-In . SVG Version: 6.00 Build 0)  -->
<svg version="1.1" id="Layer_1" xmlns:v="https://vecta.io/nano"
	 xmlns="http://www.w3.org/2000/svg" xmlns:xlink="http://www.w3.org/1999/xlink" x="0px" y="0px" viewBox="0 0 30 30"
	 style="enable-background:new 0 0 30 30;" xml:space="preserve">
<style type="text/css">
	.st0{opacity:0.4;fill:#E50707;enable-background:new    ;}
	.st1{fill:#E50707;}
</style>
<path class="st0" d="M10.3,10.4L9.1,9.3C8.8,9,8.3,9,7.9,9.3c-2.7,3.3-2.7,8,0,11.3C8.2,21,8.7,21,9.1,20.7l1.2-1.2
	c0.3-0.3,0.3-0.7,0.1-1.1c-1.6-2-1.6-5,0-7C10.7,11.2,10.6,10.7,10.3,10.4L10.3,10.4z M22.1,9.3c-0.3-0.4-0.8-0.4-1.2-0.1l-1.2,1.2
	c-0.3,0.3-0.3,0.7-0.1,1.1c1.6,2,1.6,5,0,7c-0.3,0.3-0.2,0.8,0.1,1.1l1.2,1.2c0.3,0.3,0.9,0.3,1.2,0C24.9,17.4,24.9,12.6,22.1,9.3
	C22.1,9.3,22.1,9.3,22.1,9.3z"/>
<path class="st1" d="M15,12.1c-1.6,0-2.9,1.3-2.9,2.9s1.3,2.9,2.9,2.9s2.9-1.3,2.9-2.9S16.6,12.1,15,12.1z M3.3,15
	c0-2.8,1-5.4,2.9-7.5c0.3-0.3,0.3-0.8-0.1-1.1L5,5.2c-0.3-0.3-0.9-0.3-1.2,0C1.3,8,0,11.4,0,15s1.3,7,3.8,9.7
	c0.3,0.4,0.9,0.4,1.2,0.1l1.2-1.1c0.3-0.3,0.3-0.8,0.1-1.1C4.4,20.4,3.3,17.8,3.3,15z M26.2,5.3c-0.3-0.4-0.9-0.4-1.2-0.1l-1.2,1.1
	c-0.3,0.3-0.3,0.8-0.1,1.1c3.8,4.3,3.8,10.7,0,15c-0.3,0.3-0.3,0.8,0.1,1.1l1.2,1.1c0.3,0.3,0.9,0.3,1.2,0c2.5-2.6,3.8-6,3.8-9.6
	S28.7,8,26.2,5.3z"/>
</svg>
