<svg xmlns="http://www.w3.org/2000/svg" width="149.688" height="29.515" xmlns:v="https://vecta.io/nano"><path d="M0 25.213h1.3c2.025-.045 2.264-.315 2.184-2.6V6.34c.04-2.295-.238-2.493-2.184-2.538H0v-3.8h14.63c5.44 0 8.578.4 11.24 2.74 2.86 2.565 4.33 6.525 4.33 11.744 0 5.265-1.47 9.27-4.33 11.8-2.66 2.34-5.8 3.24-11.24 3.24H0zm14.6-.135a4.37 4.37 0 0 0 4.289-2.628 22.16 22.16 0 0 0 1.112-7.965 22.24 22.24 0 0 0-1.112-7.92A4.37 4.37 0 0 0 14.6 3.937h-2.28v21.14zM42.78 4.302c-2.274.088-2.477.308-2.4 2.552v6.855l7.66-7.47a1.68 1.68 0 0 0 .65-1.144c0-.528-.57-.792-1.625-.792H44.83v-4.3h15.136V4.3H58.52c-.853-.044-2.356.85-3.818 2.214l-5.442 5.06 7.3 11.826c.975 1.5 1.746 2.024 2.924 1.98h.472v4.136H44.388V25.38h1.3c1.422 0 1.9-.22 1.9-.836a2.43 2.43 0 0 0-.325-1.056l-3.98-6.512-2.9 3.388v2.464c-.08 2.2.162 2.508 2.153 2.552h.894v4.136H27.995V25.38h1.34c2-.044 2.275-.308 2.234-2.552V6.854c.04-2.2-.244-2.508-2.234-2.552h-1.34v-4.3H42.78z" opacity=".493" fill="#424242"/><path d="M69.008.12c1.207 0 1.785.626 1.785 1.933v2.53c0 1.308-.578 1.933-1.785 1.933h-2.9V8.05h1.365v2.02H62.54V8.05h1.1V2.137h-1.1V.12zm-.682 2.417c0-.2-.052-.256-.236-.256h-1.982v2.076H68.1c.184 0 .236-.057.236-.256zm6.64 5.5h1.18v2.02h-4.83v-2.02h1.18V2.134h-1.18V.12h4.83v2.02h-1.18zm8.4-5.828H82.3v5.83h1.18v2.02h-4.83V8.05h1.18V2.22h-1.06v1.678H76.8V.12h8.53V3.9h-1.97zm9.133 0h-1.063v5.83h1.18v2.02h-4.83V8.05h1.18V2.22H87.9v1.678h-1.97V.12h8.53V3.9H92.5zm7.336.283c0-.2-.052-.256-.236-.256h-1.724c-.184 0-.236.057-.236.256v.768c0 .156.04.2.276.27l2.625.7c1.286.355 1.9.626 1.9 2.047V8.12c0 1.308-.577 1.933-1.785 1.933H96.93c-1.207 0-1.785-.626-1.785-1.933V6.768h2.467v.9c0 .2.052.256.236.256h1.876c.184 0 .236-.057.236-.256V6.8c0-.156-.066-.2-.276-.256L97.06 5.83c-1.286-.355-1.9-.626-1.9-2.047V2.05c0-1.308.577-1.933 1.785-1.933h3.556c1.207 0 1.785.626 1.785 1.933v1.265H99.82zm3.307-.37V.12h6.365c1.208 0 1.785.626 1.785 2.488 0 1.592-.184 2.2-1.063 2.374.945.1 1.168.924 1.168 2.488 0 1.976-.577 2.6-1.785 2.6h-6.47V8.05h1.1V2.136zm5.446 1.933c.184 0 .236-.085.236-.938s-.052-.938-.236-.938h-1.877v1.877zm.1 3.924c.184 0 .236-.085.236-1.052s-.052-1.052-.236-1.052h-1.982v2.1zm11.66-5.857v6c0 1.25-.63 1.933-1.785 1.933h-3.622c-1.155 0-1.785-.682-1.785-1.933v-6h-1.1V.12h4.357v2.02h-.788v5.374c0 .17.08.256.236.256h1.785q.236 0 .236-.256V2.138h-.788V.12h4.357v2.02zm10.6 7.933h-2.73l-1.535-3.74h-1.023v1.72h.866v2.02H122.1v-2.02h1.1v-5.91h-1.1V.12h6.483c1.208 0 1.785.626 1.785 1.933v2c0 1.137-.434 1.763-1.34 1.905l.866 2.1h1.063zm-3.294-5.758c.184 0 .236-.057.236-.256V2.5c0-.2-.053-.256-.236-.256h-1.995v2.06zm8.9-1.75c0-.2-.052-.256-.236-.256h-2.047c-.184 0-.236.057-.236.256v5.06c0 .2.052.256.236.256h2.047c.184 0 .236-.057.236-.256V6.37h-1.47v-2.1h3.9v3.867c0 1.308-.577 1.933-1.785 1.933h-3.858c-1.207 0-1.785-.626-1.785-1.933V2.05c0-1.308.577-1.933 1.785-1.933h3.858c1.207 0 1.785.626 1.785 1.933V3.4h-2.44zm12.033 5.488h1.1v2.02h-4.4v-2.02h.84v-2h-2.7v2h.84v2.02h-4.4v-2.02h1.1v-5.91h-1.1V.12h4.4v2.02h-.84V3.9h2.7V2.138h-.84V.12h4.4v2.02h-1.1z" fill="#f4a62e"/><path d="M70.665 16.606c0-.34-.1-.437-.4-.437H67.33c-.314 0-.4.1-.4.437v1.3c0 .267.067.34.47.46l4.48 1.213c2.2.607 3.225 1.068 3.225 3.494v3.13c0 2.232-.986 3.3-3.046 3.3h-6.34c-2.06 0-3.046-1.068-3.046-3.3v-2.33h4.2v1.553c0 .34.1.437.4.437h3.2c.314 0 .4-.1.4-.437v-1.48c0-.267-.112-.34-.47-.437l-4.48-1.238c-2.195-.607-3.225-1.068-3.225-3.494v-2.96c0-2.232.986-3.3 3.046-3.3h6.07c2.06 0 3.046 1.068 3.046 3.3v2.16h-4.2zm16.777-4.076c2.06 0 3.046 1.068 3.046 3.3v4.32c0 2.232-.986 3.3-3.046 3.3h-4.95v2.62h2.33v3.446H76.4V26.07h1.88V15.975H76.4V12.53zm-1.165 4.125c0-.34-.1-.437-.4-.437h-3.382v3.543h3.382c.313 0 .4-.1.4-.437zm8.78 12.86c-2.06 0-3.046-1.068-3.046-3.3V15.83c0-2.232.986-3.3 3.046-3.3h6.742c2.06 0 3.046 1.068 3.046 3.3v10.386c0 2.232-.986 3.3-3.046 3.3zm1.165-4.222c0 .34.1.437.4.437h3.606c.314 0 .4-.1.4-.437v-8.54c0-.34-.1-.437-.4-.437H96.62c-.313 0-.4.1-.4.437zm25.133 4.222h-4.66l-2.62-6.382h-1.747v2.936h1.478v3.446h-7.57V26.07h1.882V15.975h-1.882V12.53H117.3c2.06 0 3.046 1.068 3.046 3.3v3.42c0 1.94-.74 3-2.285 3.252l1.478 3.567h1.814zm-5.622-9.827c.314 0 .4-.1.4-.437v-2.645c0-.34-.1-.437-.4-.437h-3.4v3.52zm17-3.568h-1.817v9.95h2.016v3.446h-8.243V26.07h2.016v-9.95H124.9v2.863h-3.36v-6.455h14.56v6.455h-3.36zm12.522.486c0-.34-.1-.437-.4-.437h-2.934c-.314 0-.4.1-.4.437v1.3c0 .267.067.34.47.46l4.48 1.213c2.2.607 3.225 1.068 3.225 3.494v3.13c0 2.232-.986 3.3-3.046 3.3h-6.34c-2.06 0-3.046-1.068-3.046-3.3v-2.33h4.2v1.553c0 .34.1.437.4.437h3.2c.313 0 .4-.1.4-.437v-1.48c0-.267-.112-.34-.47-.437l-4.48-1.238c-2.195-.607-3.225-1.068-3.225-3.494v-2.96c0-2.232.986-3.3 3.046-3.3h6.07c2.06 0 3.046 1.068 3.046 3.3v2.16h-4.208z" fill="#00447e"/></svg>