<?xml version="1.0" encoding="utf-8"?>
<!-- Generator: Adobe Illustrator 24.2.3, SVG Export Plug-In . SVG Version: 6.00 Build 0)  -->
<svg version="1.1" id="Layer_1" xmlns:v="https://vecta.io/nano"
	 xmlns="http://www.w3.org/2000/svg" xmlns:xlink="http://www.w3.org/1999/xlink" x="0px" y="0px" viewBox="0 0 149.7 29.5"
	 style="enable-background:new 0 0 149.7 29.5;" xml:space="preserve">
<style type="text/css">
	.st0{opacity:0.493;fill:#FFFFFF;enable-background:new    ;}
	.st1{fill:#F4A62E;}
	.st2{fill:#00447E;}
</style>
<path class="st0" d="M0,25.2h1.3c2,0,2.3-0.3,2.2-2.6V6.3c0-2.3-0.2-2.5-2.2-2.5H0V0h14.6c5.4,0,8.6,0.4,11.2,2.7
	c2.9,2.6,4.3,6.5,4.3,11.7c0,5.3-1.5,9.3-4.3,11.8c-2.7,2.3-5.8,3.2-11.2,3.2H0V25.2z M14.6,25.1c1.8,0.1,3.6-0.9,4.3-2.6
	c0.9-2.6,1.2-5.3,1.1-8c0.1-2.7-0.3-5.4-1.1-7.9c-0.7-1.7-2.4-2.7-4.3-2.6h-2.3v21.1L14.6,25.1z M42.8,4.3c-2.3,0.1-2.5,0.3-2.4,2.6
	v6.9L48,6.2c0.4-0.3,0.6-0.7,0.7-1.1c0-0.5-0.6-0.8-1.6-0.8h-2.2V0H60v4.3h-1.4c-0.9,0-2.4,0.8-3.8,2.2l-5.4,5.1l7.3,11.8
	c1,1.5,1.7,2,2.9,2H60v4.1H44.4v-4.1h1.3c1.4,0,1.9-0.2,1.9-0.8c0-0.4-0.1-0.7-0.3-1.1l-4-6.5l-2.9,3.4v2.5
	c-0.1,2.2,0.2,2.5,2.2,2.6h0.9v4.1H28v-4.1h1.3c2,0,2.3-0.3,2.2-2.6v-16c0-2.2-0.2-2.5-2.2-2.6H28V0h14.8V4.3z"/>
<path class="st1" d="M69,0.1c1.2,0,1.8,0.6,1.8,1.9v2.5c0,1.3-0.6,1.9-1.8,1.9h-2.9v1.5h1.4v2h-4.9v-2h1.1V2.1h-1.1v-2H69z
	 M68.3,2.5c0-0.2-0.1-0.3-0.2-0.3h-2v2.1h2c0.2,0,0.2-0.1,0.2-0.3L68.3,2.5z M75,8h1.2v2h-4.8V8h1.2V2.1h-1.2v-2h4.8v2H75V8z
	 M83.4,2.2h-1.1V8h1.2v2h-4.8v-2h1.2V2.2h-1.1v1.7h-2V0.1h8.5v3.8h-2L83.4,2.2z M92.5,2.2h-1.1V8h1.2v2h-4.8v-2H89V2.2h-1.1v1.7h-2
	V0.1h8.5v3.8h-2L92.5,2.2z M99.8,2.5c0-0.2-0.1-0.3-0.2-0.3h-1.7c-0.2,0-0.2,0.1-0.2,0.3v0.8c0,0.2,0,0.2,0.3,0.3l2.6,0.7
	c1.3,0.4,1.9,0.6,1.9,2v1.8c0,1.3-0.6,1.9-1.8,1.9h-3.7c-1.2,0-1.8-0.6-1.8-1.9V6.8h2.5v0.9c0,0.2,0.1,0.3,0.2,0.3h1.9
	c0.2,0,0.2-0.1,0.2-0.3V6.8c0-0.2-0.1-0.2-0.3-0.3l-2.6-0.7c-1.3-0.4-1.9-0.6-1.9-2V2c0-1.3,0.6-1.9,1.8-1.9h3.6
	c1.2,0,1.8,0.6,1.8,1.9v1.3h-2.5L99.8,2.5z M103.1,2.1v-2h6.4c1.2,0,1.8,0.6,1.8,2.5c0,1.6-0.2,2.2-1.1,2.4c0.9,0.1,1.2,0.9,1.2,2.5
	c0,2-0.6,2.6-1.8,2.6h-6.5v-2h1.1V2.1L103.1,2.1z M108.6,4.1c0.2,0,0.2-0.1,0.2-0.9s-0.1-0.9-0.2-0.9h-1.9v1.9L108.6,4.1z M108.7,8
	c0.2,0,0.2-0.1,0.2-1.1s-0.1-1.1-0.2-1.1h-2V8L108.7,8z M120.3,2.1v6c0,1.2-0.6,1.9-1.8,1.9h-3.6c-1.2,0-1.8-0.7-1.8-1.9v-6h-1.1v-2
	h4.4v2h-0.8v5.4c0,0.2,0.1,0.3,0.2,0.3h1.8c0.2,0,0.2-0.1,0.2-0.3V2.1h-0.8v-2h4.4v2L120.3,2.1z M130.9,10.1h-2.7l-1.5-3.7h-1V8h0.9
	v2h-4.4V8h1.1V2.1h-1.1v-2h6.5c1.2,0,1.8,0.6,1.8,1.9v2c0,1.1-0.4,1.8-1.3,1.9l0.9,2.1h1.1L130.9,10.1z M127.7,4.3
	c0.2,0,0.2-0.1,0.2-0.3V2.5c0-0.2-0.1-0.3-0.2-0.3h-2v2.1L127.7,4.3z M136.6,2.5c0-0.2-0.1-0.3-0.2-0.3h-2c-0.2,0-0.2,0.1-0.2,0.3
	v5.1c0,0.2,0.1,0.3,0.2,0.3h2c0.2,0,0.2-0.1,0.2-0.3V6.4h-1.5V4.3h3.9v3.9c0,1.3-0.6,1.9-1.8,1.9h-3.9c-1.2,0-1.8-0.6-1.8-1.9V2
	c0-1.3,0.6-1.9,1.8-1.9h3.9c1.2,0,1.8,0.6,1.8,1.9v1.4h-2.4L136.6,2.5z M148.6,8h1.1v2h-4.4V8h0.8V6h-2.7v2h0.8v2h-4.4V8h1.1V2.1
	h-1.1v-2h4.4v2h-0.8v1.8h2.7V2.1h-0.8v-2h4.4v2h-1.1V8z"/>
<path class="st2" d="M70.7,16.6c0-0.3-0.1-0.4-0.4-0.4h-2.9c-0.3,0-0.4,0.1-0.4,0.4v1.3c0,0.3,0.1,0.3,0.5,0.5l4.5,1.2
	c2.2,0.6,3.2,1.1,3.2,3.5v3.1c0,2.2-1,3.3-3,3.3h-6.3c-2.1,0-3-1.1-3-3.3v-2.3h4.2v1.6c0,0.3,0.1,0.4,0.4,0.4h3.2
	c0.3,0,0.4-0.1,0.4-0.4v-1.5c0-0.3-0.1-0.3-0.5-0.4l-4.5-1.2c-2.2-0.6-3.2-1.1-3.2-3.5v-3c0-2.2,1-3.3,3-3.3h6.1c2.1,0,3,1.1,3,3.3
	V18h-4.2L70.7,16.6z M87.4,12.5c2.1,0,3,1.1,3,3.3v4.3c0,2.2-1,3.3-3,3.3h-4.9v2.6h2.3v3.4h-8.4v-3.4h1.9V16h-1.9v-3.4L87.4,12.5z
	 M86.3,16.7c0-0.3-0.1-0.4-0.4-0.4h-3.4v3.5h3.4c0.3,0,0.4-0.1,0.4-0.4V16.7z M95.1,29.5c-2.1,0-3-1.1-3-3.3V15.8c0-2.2,1-3.3,3-3.3
	h6.7c2.1,0,3,1.1,3,3.3v10.4c0,2.2-1,3.3-3,3.3L95.1,29.5z M96.2,25.3c0,0.3,0.1,0.4,0.4,0.4h3.6c0.3,0,0.4-0.1,0.4-0.4v-8.5
	c0-0.3-0.1-0.4-0.4-0.4h-3.6c-0.3,0-0.4,0.1-0.4,0.4L96.2,25.3z M121.4,29.5h-4.7l-2.6-6.4h-1.7v2.9h1.5v3.4h-7.6v-3.4h1.9V16h-1.9
	v-3.4h11.1c2.1,0,3,1.1,3,3.3v3.4c0,1.9-0.7,3-2.3,3.3l1.5,3.6h1.8L121.4,29.5z M115.7,19.7c0.3,0,0.4-0.1,0.4-0.4v-2.6
	c0-0.3-0.1-0.4-0.4-0.4h-3.4v3.5L115.7,19.7z M132.7,16.1h-1.8v10h2v3.4h-8.2v-3.4h2v-10h-1.8V19h-3.4v-6.5h14.6V19h-3.4L132.7,16.1
	z M145.3,16.6c0-0.3-0.1-0.4-0.4-0.4h-2.9c-0.3,0-0.4,0.1-0.4,0.4v1.3c0,0.3,0.1,0.3,0.5,0.5l4.5,1.2c2.2,0.6,3.2,1.1,3.2,3.5v3.1
	c0,2.2-1,3.3-3,3.3h-6.3c-2.1,0-3-1.1-3-3.3v-2.3h4.2v1.6c0,0.3,0.1,0.4,0.4,0.4h3.2c0.3,0,0.4-0.1,0.4-0.4v-1.5
	c0-0.3-0.1-0.3-0.5-0.4l-4.5-1.2c-2.2-0.6-3.2-1.1-3.2-3.5v-3c0-2.2,1-3.3,3-3.3h6.1c2.1,0,3,1.1,3,3.3V18h-4.2L145.3,16.6z"/>
</svg>
