<svg xmlns="http://www.w3.org/2000/svg" viewBox="0 0 600 600" xmlns:v="https://vecta.io/nano"><path d="M365.5 491.8c7 0 12.3-5.2 12.5-12.2.2-6.2-4.5-12.5-12.5-12.5-8.2 0-12.5 6.1-12.6 12.2 0 7 5.4 12.5 12.6 12.5z" fill="#fffefe"/><path d="M284.9 570.3c-.1-1.2-.9-2-1.4-2.9l-73.3-122.2c-.3-.5-.5-1-.8-1.4-.4-.7-1-.8-1.6-.2l-1.6 1.5c-5.9 5.7-12.8 8.7-21 8.7H34.3c-.6-.8-.1-1.3.2-1.8l21.2-35.7c2.5-4.3 6.6-6.2 11.2-7.1 2.5-.5 5.1-.6 7.7-.6h107.8c1.7 0 3.4-.1 5.7-.2L9.5 110.8c1.3-.8 2.4-.5 3.4-.5h88.5c2.2 0 3.8-.5 5.3-2.2 3.6-4.2 7.3-8.3 11-12.3.8-.9 1.2-1.8 1.5-2.9 2.9-10.6 7.9-20.3 13.6-29.6 1.3-2.1 3.2-3.8 5-5.5C149.5 47 163 38.7 177.4 31.7c3.7-1.8 7.5-3.5 11.3-5 7.2-3 14.3-2.5 21.3.7 6.5 3 12 7.5 16.4 13 6 7.4 12.4 14.5 19.5 20.8 2.2 1.9 4.7 3.6 6.8 5.5 3.8 3.5 8.3 3.7 13.1 3.4 5.2-.4 9.9-2.3 14.6-4.3 16.7-7.3 33.6-14 50.6-20.4 5.8-2.2 12-2.5 18.1-2.7 8-.3 15.9.4 23.8 1.8 2.7.5 5.1 1.5 7.5 2.7 12.6 6 24.1 13.8 35.2 22.3.2.2.5.3.6.5 1.9 2 3.8 2.2 6.6 1.1 5.5-2.1 11.3-3 17.2-2.5 2.1.2 3.9.9 5.5 2.2 4.5 3.6 7.4 8.3 10.2 13.1 1.7 3 3.3 6.1 4.6 9.4.7 1.6 1.5 2.3 3.4 2.4 5.6.3 9.4 3.5 12.3 8.2.6.9.9 2 1.5 2.9 1.2 1.9 2.6 2 4.2.5l8.9-8.5c1-.9 1.5-2 1.5-3.4-.1-2 .6-3.8 1.1-5.6.4-1.3 1.2-1.9 2.6-1.9 1.7.1 3.5.1 5.2 0 1.3 0 2.3.5 3.3 1.1 5.1 3.2 9.6 7 13.5 11.6 1.5 1.7 2.5 3.6 2.1 6-.1.6 0 1.3 0 1.9-.2 1.4.5 1.8 1.8 1.7h26.1c1 0 2-.1 3 .2.4 1.1-.4 1.8-.8 2.5l-97.1 167.8c-.3.5-.6.9-.8 1.4-1.2 2.2-1.2 2.4.8 3.8 4.7 3.3 9.9 5.1 15.5 6 5 .8 10 .7 15.1 0 3.1-.4 6.8-4.2 6.8-7.3 0-.6-.2-1.2-.6-1.5-2.1-1.9-2.2-4.6-2.5-7.1-.8-7.1-1.2-14.2-.1-21.3.5-3.5 1.5-7 3.2-10.2 2.2-3.9 4.8-5.3 9.3-4.8 2.3.3 4.5.6 6.8 1 2.2.3 2.2.3 2.3-1.7v-1.1c.3-3.2.3-3.2-2.7-4.2-1.3-.4-2.6-.9-3.9-1.3-1.2-.4-1.7-1.2-1.7-2.5.2-3.1.6-6.2 1.6-9.2.8-2.2 1.1-2.4 3.5-1.8 8 1.9 15.9 4.2 23.8 6.6 17.9 5.4 35.5 11.6 53 17.9 1.2.4 2.3 1 3.5 1.6 6.1 3.4 5.8 10.4 3.3 14.3-2 3.1-4.1 6-6.3 9-1 1.4-1.8 2.9-2.3 4.6-.9 3.1-2.3 6-4.6 8.3-3.7 3.9-8.3 5.1-13.5 4.6-2.3-.2-4.5-.8-6.7-1.5-6.3-2.1-12.8-2.9-19.4-3.6-1.5-.2-2.4.6-3.1 1.8-1.8 2.9-4.1 5.3-6.9 7.3-1.7 1.2-3.5 1.9-5.6 1.9-1.4 0-2.7.3-4.1.3-1.3 0-1.8.5-2.1 1.9-1 6.2-3.1 12-6.6 17.3-3.6 5.3-8.4 8.9-14.7 10.9-21.8 7-43.7 14.1-64.9 22.9-5.2 2.1-10.3 4.4-15.1 7.1-2 1.1-3.4 2.6-4.6 4.6l-15.4 26.6c-.7 1.3-1.4 2.6-1.3 4.1a112.33 112.33 0 0 1 .3 8.2c0 1.8.7 3.1 1.8 4.4 3.9 4.8 7.5 9.7 10.4 15.2 1.4 2.6 2.5 5.3 3.1 8.2.2.9.3 1.8.3 2.7-.1 1.9-.7 2.6-2.6 3-2.4.5-4.9.8-7.3 1.3-2.3.4-2.6.9-1.8 3.1.8 2.4 2.3 3.5 4.9 3.6 2.9.1 5.9 0 8.8 0 2.2 0 2.4.2 2.5 2.4.1 3.7.5 7.3.9 10.9.2 2.4 0 2.7-2.5 2.7h-55.2c-1.9 0-3 .6-3.9 2.2l-65.7 113.4c-.2.4-.5.8-.7 1.2 0 .4-.2.4-.3.4zM20.4 116c.1 1.3.8 2 1.2 2.7l35.5 59.1 39.5 66 39.9 66.7 30.4 50.6 26.6 44.6c1 1.6 2.1 2.2 3.8 1.8 3-.6 5.7-1.9 8-4 2-1.9 3.9-3.9 5.8-5.8l18.2-18c1.2-1.2 1.5-2.2.9-3.8-1.7-4.1-2.3-8.4-2.7-12.8a136.03 136.03 0 0 1-.3-9.1c0-1.3-.2-2.4-1.3-3.1-1.5-1-1.9-2.5-2-4-.3-3.9-.9-7.8-.6-11.8.1-1.5-.4-2.4-1.5-3.2-3.8-3-6.8-6.6-9.6-10.5-.6-.8-.9-1.7-1.1-2.8-.8-4.3-.7-8.6-.9-12.9-.1-2.1-.6-3.9-1.8-5.6-10.4-15.7-20-31.7-28.1-48.8-7.7-16.4-14.2-33.1-16.7-51.2-.8-6.1-.7-12 2.8-17.5 1.6-2.5 3.1-5.2 4.8-7.7 1.1-1.6 1.6-3.2 1.6-5.1 0-3.1-.2-6.2-.7-9.3-.8-5.5-2.6-10.7-6-15.2-2.4-3.2-5.3-5.6-9.6-5.5-3 0-5.7.9-8.3 2.5l-55.8 33.5c-.5.3-.9.9-2 .6l15.7-31.2c-.2-.1-.4-.3-.6-.4-12.3 10.7-22.9 23.1-32.9 35.8l-.6-.3c-.1-1-.3-2-.4-3-.8-9.1-.8-18.1 1.4-27 1.3-5.4 3.3-10.5 7.1-14.7l16.1-18c.4-.4 1.2-.7.7-1.6H20.4zm180.7 72.3c.1 1.9.1 4.1.3 6.3.7 8.7 2.5 17.1 6.7 25 9.2 17.2 21.6 31.8 36 44.7 16.5 14.8 35.1 26.7 55.1 36.3 2.6 1.3 2.2 1.8 4.8-1l28.2-30.1 42-45 12.1-12.8c1-1.1 1.2-2 .2-3.1-.2-.3-.4-.6-.7-.9-10.8-14.7-22.8-28.2-36.2-40.5-12.6-11.6-26.1-21.8-41.4-29.7-12.9-6.7-26.6-11.3-41.2-12.6a86.39 86.39 0 0 0-22.7 1.2c-6.5 1.2-12.6 3.2-17.6 7.7-1.5 1.4-3.1 2.6-4.5 4-14.2 13.7-20.9 30.6-21.1 50.5zm124.4 265.4s0 .1 0 0h-17c-.9 0-1.8 0-2.7-.2-3.2-.6-4.9-2.7-5-5.9-.1-2.8.3-5.5 1.7-7.9 1-1.8 1.7-3.7 2.7-5.4 1.8-2.9 2.5-5.9 2.2-9.3-.5-5.6 2.2-9.7 7.1-12.3 2.4-1.3 5.1-1.9 7.8-2.4 4.1-.8 8.2-.5 12.3-.6 3.8-.1 7.4-.9 10.8-2.7 1.7-.9 2.5-2.2 2.8-4.1.5-3.3.3-6.6 0-9.9-.3-3.6-.3-3.6 3.3-4.2 4.1-.7 4.4-1.1 3.8-5.2 0-.4-.2-.7-.2-1.1-.9-4.8-2.4-9.4-4.3-13.9-1.2-3-2.4-6-3-9.1-1.3-6.8-1.6-13.3 4.1-18.6 1.1-1.1 1-1.5-.6-2-11.6-3.8-22.9-8.1-34.1-12.9-1.7-.7-3.1-.1-3.6 1.6-.4 1.3-.5 2.7.4 4 1.3 1.9 1.9 4.1 2.5 6.4 1.4 6 .8 12-.2 18-.5 3.3-2.5 5.3-5.4 6.3-1.8.6-2.9 1.7-3.8 3.3-2.2 3.9-5 7.3-8.3 10.1-1.9 1.6-3.9 3.1-6.6 2.7-1.5-.2-2 .6-2.5 1.9-1.5 4.3-3.4 8.5-6.1 12.2-2.3 3.2-5 6-8.6 7.9-1.6.8-3.1 1.1-4.7.3-1.5-.7-3.1-1-4.8-1.1-4.9-.4-9.9-.8-14.6-2.2-1.9-.5-3 0-4.2 1.4l-32 36.3c-2 2.2-2 2.2-.5 4.7L284 556.2c1.4 2.3 1.6 2.3 3 0 0-.1.1-.2.1-.2l57.5-99.7c1.4-2.5 1.4-2.6-1.6-2.6h-17.5zM400 230.2L324.6 313c.6.7 1.2.9 1.8 1.2 11.9 5.3 24 10 36.5 13.5 12 3.3 24.1 5.6 36.6 4.8 6.7-.4 13.2-2 19.1-5.4 3.2-1.9 5.5-4.4 7.1-7.8 3.3-6.9 3.2-14.2 2.6-21.5s-2.6-14.4-5-21.3c-5.2-14.8-12.4-28.7-20.4-42.2-.8-1.4-1.4-2.9-2.9-4.1zm48.8 44c.5-.3.7-.3.8-.4L539.5 118c.2-.4.4-.8.5-1.3v-.3c0-.1-.1-.2-.1-.3-.2-.1-.3-.2-.5-.2h-34.9c-.8 0-1.4.1-2 .7l-4.3 4.2c-.9.8-.9 1.7-.4 2.7 1 1.8 1.8 3.6 2.8 5.3 3.5 5.9 3 12.1 1.4 18.4-.5 1.8-1.3 3.4-3.1 4.3-.9.4-1.4 1.1-1.9 1.9-.7 1.1-1.5 2.1-2.6 2.8-1.2.7-1.9 1.6-1.9 3.1 0 .7-.3 1.4-.4 2.1-1.2 4.7-2.9 9.1-7.5 11.6-1.2.6-2.1 1.7-3.2 2.5-1.5 1.1-2.5 2.6-3 4.4-.8 2.7-2.1 5.2-4 7.5-1.7 2.1-3.9 3.2-6.7 3.2-4.1 0-8-.4-11.8-2.2-.8-.4-1.7-.8-2.6-.8-3.9-.3-7.6-1.1-11.2-2.4-2.5-.9-4-.2-5.6 1.7-4.1 4.9-8.4 9.7-12.6 14.5-3.8 4.3-3.6 2.8-1.1 8.2a698.76 698.76 0 0 1 21.6 52.2l4.4 12.4zm-83.7-147.3c-.1 1.6 0 1.9 1.2 3.2 15.3 17.1 29.1 35.3 42 54.3a6.42 6.42 0 0 0 1 1.3c.5.6 1.1.7 1.6.1.6-.6 1.2-1.1 1.8-1.7l14.2-14.9c1.3-1.3 1.4-2.5.6-4.2-2.7-5.7-3.5-11.7-2.5-17.9.2-1-.1-1.8-.8-2.5-.9-1-2-1.4-3.4-1.6l-15.7-2.3c-4.9-.9-9.9-1.8-14.7-3.2-1.8-.5-2.8-1.5-3-3.4-.2-2.3-1.1-4.5-.7-6.8.6-4-1.6-6.1-4.7-7.7-1.2-.6-2.4-1.3-3.8-1.6-2.8-.6-5.6-1.5-8.2.3-3 2.2-4.6 5-4.9 8.6zm-61.2 196.9c1.3 0 1.8-.9 2.4-1.5l123.1-136.6 12.3-13.7c.9-1 1.3-1.8.6-3.1-1.6-3.3-3.2-3.2-5.2-.8l-.6.6-39.4 42.6-43.9 47.3-47.8 51.6-6.7 7.3c-.5.6-1.3 1.1-.8 2.1.7 1.7 4.4 4.2 6 4.2zM173.7 448.3h3c3.4 0 6.8-.2 10.2.2 2 .2 3.8 0 5.6-.7 3-1.1 5.4-3.1 7.5-5.4l21.5-23.9 19.7-21.8c1.5-1.7 1.5-1.8-.2-3.2-2.3-1.9-4.2-4.1-6.1-6.3-1.6-1.8-1.6-1.8-3.4-.2-.3.2-.5.5-.8.8l-21.6 20.7c-3.1 3.1-6.8 4.9-10.8 6.2-3.1 1-6.2 1.6-9.4 1.7-2.2 0-3 1-3.7 2.8l-7.5 18.9-4 10.2zm-66.2-289.8c.8-.4 1.1-.4 1.3-.6 10.4-6.1 20.8-12.3 30.9-19 4-2.6 3.6-1.8 2.3-6.3-3.4-11.9-10.7-21.1-19.8-29.1-1.3-1.1-1.7-1.1-3 .3l-8.8 9-26.1 27.1c-1.8 1.9-3.2 4-3.9 6.5-.9 3.1-1.9 6.1-2.6 9.2-.7 2.8-1.3 5.6-1.4 8.6 1-.1 1.3-.8 1.8-1.3 9.6-10.3 19.5-20.4 30-29.8 5.8-5.2 11.7-10.2 18.3-14.4.7-.4 1.4-1.3 2.6-.8l-21.6 40.6zm250 290.2h46.2c4.4 0 3.8.1 3.4-3.8-.2-1.6-.9-1.8-2.1-1.8h-6.9c-3.8-.1-5.9-1.6-7-5.3-.4-1.2-.5-2.5-.7-3.8-.1-.6-.1-1.4-.9-1.5-1.4-.2-2.7-.2-4.1 0-.6.1-.8.7-.8 1.3-.2 1.5-.3 2.9-.6 4.3-.8 3.7-2.3 5-6.1 5h-26.4c-3.9-.1-6-2.2-6.3-5.8-.1-1.4.7-3.4-.5-4.1s-3-.1-4.6-.1h-.5c-1.4.1-2.4.7-2.9 2.1-.7 2-1.7 3.9-2.4 5.8-.5 1.2-1.2 1.9-2.6 1.9-2.5-.1-4.9 0-7.4-.1-2.9-.1-5-1.6-6.4-4.1-.7-1.3-1-2.8-1.1-4.2-.1-.5 0-1.1-.5-1.5-.9-.7-4.2-.2-4.8.8-1.7 3-3.7 5.9-5 9.2-1.6 4-.5 6.1 4 5.8h1.1l45.9-.1zm-90.6-56.4c1.4-6.9 2-13.4 2.4-20 .3-4.4-.1-8.8-.4-13.1-.2-3.1-.8-6.1-2.6-8.8-1.6-2.4-3.2-4.9-5.1-7.1-2-2.4-4.3-4.6-7.1-6-2.2-1.1-4.6-1.8-7.1-.9-1.9.7-2.1 1-2 3 .4 6.5 1.4 12.9 3 19.2 2.6 10.1 6.4 19.7 13 27.9 1.7 2.1 3.4 4.1 5.9 5.8zm247.4-152.5c0 .7 0 1.5-.2 2.2-.4 1.4.1 2.1 1.4 2.4 1.4.3 2.8.7 4.2 1.2 1.3.4 1.9 0 2.2-1.2.7-2.1 1.4-4.2 2.2-6.2.6-1.7.8-1.8 2.6-1.2l25.5 8.5c1.5.5 2 1.3 2 2.8-.1 2.4 0 4.8 0 7.1 0 2 .1 2.1 2.5 2.9 2.1.7 2.4.6 3.5-.9 1.4-1.8 2.7-3.7 4-5.6.8-1.1 1.7-1.5 3-1 1.6.7 3.2 1.4 4.8 2 1.5.5 2.1 1.6 2.4 3.1.4 1.8-.1 3.5-.4 5.2-.4 3.3-.5 3.2 2.7 4.3 1.4.5 2.2.2 3-1 .7-1.2 1.6-2.2 2.4-3.4 1.1-1.6 2.1-3.2 2.9-5 1.3-3.2.5-5.3-2.7-6.6-1.6-.7-3.2-1.3-4.8-2-22.8-9-46.2-16.1-69.8-22.7-2.2-.6-2.4-.4-2.7 1.9-.4 2.6-.4 2.6 2.2 3.4 1.9.6 3.8 1.3 5.8 1.8 1.6.4 2.1 1.2 1.8 2.8-.3 1.8-.4 3.5-.5 5.2zm-80-101.9c0 2.1 0 3.6.4 5.2.5 2.2.7 2.4 2.9 2.2 2.4-.2 4.1-1.2 5.5-3.1 8.3-11.2 17.3-21.8 27.4-31.4 1-.9 1.6-2 1.8-3.3.1-.8 0-1.7-.6-2.3-3.8-3.9-9.2-5.2-13.6-1.7-9.2 7.4-16.4 16.4-21.8 26.9-1.4 2.5-2.3 5.1-2 7.5zm-391 310.4h16.4c2.1.1 3.3-.6 4.3-2.5l15.3-27.3c.3-.6.9-1.2.7-2.2H67c-3.9.1-6.8 1.7-8.7 5.2L47 441.6l-3.7 6.7zM469 181.6c-.2-1.5-.4-3.3-.9-5.1-1.7-7.2-5.6-13.2-10-19-1.4-1.8-3-2.6-5.1-2.8-1-.1-2-.1-3 0-3.9.2-6.6 5-4.7 8.5 3.7 6.7 8.3 12.7 13.3 18.4 1.9 2.2 4.3 3.3 7.1 3.8 2.6.4 2.9.2 3.2-2.3.1-.5.1-.9.1-1.5zM285.4 364.3c0-1.2.1-3.2 0-5.2-.1-2.1-.4-4.2-1.6-6-2.2-3.4-4-3.8-7.5-1.7-2.6 1.6-2.8 2.2-2.2 5.2 1.7 8.6 2.4 17.2 1.4 26-.4 3.2-.8 6.4-1.6 9.5-.1.5-.3 1.1.3 1.5.5.3 1 .1 1.6-.1 1.4-.6 2.4-1.7 3.3-2.9 3-4.2 4.8-8.8 5.6-13.9.7-3.8.9-7.6.7-12.4zm190.7-241.5v-2.9c-.1-1.2-.7-2.1-1.7-2.6-1-.4-1.7.5-2.3 1-5 4.2-9.6 8.8-14 13.5-3 3.2-5.7 6.7-8.2 10.3-.9 1.4-1.5 2.9-1.4 4.6 0 .7.3 1.4 1 1.4 2.7.2 5.5.8 7.9-1.2 6.3-5.3 12-11.2 16.8-18.1 1.3-1.8 2.3-3.9 1.9-6zM239.3 341.9c-4.2 2.2-6.3 5.5-6.2 9.8 0 3.1.2 6.2.7 9.3 1.5 8.6 4.4 16.6 10.4 23.1 3.2 3.5 7.1 6.1 12 8.2-10.6-15.5-16.1-32-16.9-50.4zM144.9 86.1c2.8-.2 5.2-.8 7.5-.3 2.4.5 4.1 1.8 4.7 4.1 1.1 4.1.9 8.8-3.8 11.8 2.8 1.1 5.3 1.3 7.7-.4 2.5-1.8 3.1-4.4 2.7-7.3-.9-6.9-4.9-11.2-11.4-13.4-2.6-.9-2.5-.9-1.8-3.4 1.2-4.3 3.3-8.2 6.5-11.3 1.2-1.2.9-2.2.5-3.4-.5-1.4-1.5-1.3-2.6-1.4-1.8-.1-3.5.3-5.2.6-3 .4-2.9.4-2.9 3.4 0 4 .3 8-.5 12-.6 2.9-.9 5.7-1.4 9zM404 101.2l-3.2.6c-1 .2-1.5.8-1.4 1.7.3 2.4.5 4.7 3.3 6.1 7.8 3.9 15.4 8 23.1 12.1.5.3 1 .5 1.5.7 1.1.4 2.2.4 2.9-.7.8-1.2 0-2-.9-2.8-7.1-6-14.4-11.6-22.2-16.7-.9-.6-1.9-1.1-3.1-1zM230.2 320.1c.1-1.3 0-2.9-.9-4.2-2-3-4.1-5.9-6.7-8.3-1.2-1.1-2.5-2.1-4.1-2.6-1.7-.5-2.9.1-3.4 1.8-.5 1.8-.6 3.6-.3 5.4.9 5.9 4.3 10.1 8.8 13.8 1.1.9 2.5 1 3.9 1 1.1 0 1.9-.5 2.1-1.7.2-1.8.7-3.3.6-5.2zm72.3 32.2c.2-3 0-6-1.1-8.9-.7-1.7-1.7-3.3-3.4-4.1-2-1-2.8-.6-3.3 1.6l-2 10.5c-.1.6-.1 1.3.1 1.9 1.1 4.2 1.8 8.4 1.7 12.7 0 .9-.1 2 .9 2.4 1.1.5 2-.2 2.7-.8 1.7-1.3 2.6-3.3 3.3-5.3a30.16 30.16 0 0 0 1.1-10zM417 86.4c-.2 1.4.2 2.7 1.9 3.6 7.9 4.5 14.9 10.2 20.9 17.1 1.2 1.4 3 1.6 4.1.6 1-1 1-2.9-.1-4.2-6-6.8-12.3-13.2-19.5-18.9-1.2-.9-2.4-1.5-4-1.6-3-.1-3.3.2-3.3 3.4zM230 344.7c.8-.5 1-1.3 1.3-1.9 2-4.1 4.8-7.5 8.1-10.7 1.4-1.3 2.9-2 4.9-2.2 2.7-.3 5.3.1 7.9.2 1.8 0 2-.2 2.2-2 .4-3.4-3.5-6.8-7-6.1-7.6 1.7-13.4 6.1-18.2 12-2.5 3.2-2 7.7.8 10.7zm38.6-20.8c-.9-.1-1.7 0-2.5.5-2.9 2-5.5 4.3-7.5 7.2-.7 1-.8 1.7.2 2.6 2.2 2.1 4.3 4.2 6.4 6.4.7.7 1.3 1 2.1.4 3.6-2.4 6.6-5.2 8-9.4 1-3-.1-5.4-3-6.7-1.1-.6-2.4-.8-3.7-1zm113.5 53.3c-.2 1.5.2 3.3.7 5.1.3 1 .3 2.4 1.6 2.6 1.4.2 1.7-1.2 2.2-2.1l11.8-20.1c.2-.3.4-.6.5-1 .6-1 0-1.3-.9-1.4-.5 0-1.1 0-1.6.1-4.5.6-8 3.1-10.6 6.7-2.1 2.9-4.4 5.8-3.7 10.1zm30-284.4c-.7 0-1.5.1-2.2.1-.7.1-1.2.4-1.2 1.2 0 2 .1 3.7 2.2 4.9 7.4 4.3 14.2 9.3 21.2 14.3.5.4 1 .8 1.6 1 .9.3 1.8.3 2.4-.7.5-.8.5-1.6-.1-2.3-.7-.8-1.3-1.5-2-2.2-5.5-5.4-11.4-10.4-17.5-15-1.4-1-2.8-1.4-4.4-1.3zm-17.2 23.9c.1 3.5.6 4.3 3.8 5.4l22.7 8.1c1.9.7 2.9.5 3.1-.5.4-1.4-.9-1.6-1.6-2.2-.2-.2-.5-.3-.7-.5-6.5-4.1-13.1-8.1-19.8-11.7-.9-.5-1.7-1-2.7-1.4-2.5-.9-4.9.5-4.8 2.8zm-132.8 197c-.5-2.6-.1-5.2-.4-7.7-.2-2.4-.4-4.9-1-7.3-.7-2.5-2.4-4.1-4.8-4.8-1.7-.5-2.4.1-2.2 1.9.1 1 .3 2 .4 3 .4 5.2.1 10.4.2 15.6 0 2 1.4 4 3.2 4.6.5.2 1.1.3 1.6-.1 1.3-1.5 2.9-2.9 3-5.2zM428.2 78.4c-.2 2.3-.1 2.5 1.6 4 2 1.8 4.1 3.7 6 5.6a172.15 172.15 0 0 1 10 10.9c.6.7 1.4 1.4 2.3.6.9-.7.4-1.5 0-2.2-3.8-7.8-9.1-14.5-14.5-21.2-1.2-1.4-2.8-1.3-4.3-1s-.9 1.8-1.1 2.7c.1.2.1.4 0 .6zm-32.9 47c-2.9 0-3.9 1.3-3.2 4 .4 1.7 1.5 2.3 3 2.6a537.23 537.23 0 0 0 24.6 5.1c1 .2 2.2.7 2.6-.5.4-1.3-1-1.5-1.9-1.9-7.8-3.2-15.8-6.3-23.8-8.9-.5-.2-1-.3-1.3-.4zm-158 191.4c.2-.3.4-.5.4-.8.7-4.7 1.3-9.4-1.1-14-.6-1.2-1-2.5-1.6-3.8-1.4-3.2-1.6-3.2-4.9-3.1-1.5 0-1.9.6-1.9 2l-.1 7.1c0 1 .4 1.9.9 2.8 1.5 2.5 3.1 5 5.1 7.2.9 1.1 1.8 2.2 3.2 2.6zm310.5-64.3c-.1-2.8.6-2.8-2.9-4-4.5-1.5-8.9-3.1-13.4-4.7-2.6-.9-2.6-.9-3.6 1.8-.1.3-.2.5-.3.8-.6 1.3-.2 2.1 1.1 2.8 5.2 2.8 10.5 5.1 16.3 6.1 2.7.5 2.7.4 2.8-2.4v-.4zM484 165.6c.8.1 1-.2 1.2-.5 1.5-3.4 2.4-7 1.7-10.7-1-5.6-3.3-10.8-6.8-15.4-.4-.5-.8-1-1.3-1.4-.7-.7-1.5-.6-2.3-.4-.9.3-.9 1-1 1.8-.1 1.6.3 3 1.3 4.3 2.4 3.1 4.1 6.7 5.3 10.5 1.3 3.8 1.8 7.7 1.9 11.8zM247.7 312.9c1.7-6.5.4-12.4-.5-18.4-.2-1.2-2.1-1.7-4.1-1.4-1.4.2-1.5 1.2-1.4 2.2.1 3.7.3 7.3 1.2 10.9.5 2.7 2.1 4.8 4.8 6.7zm24.8-5.3c0-4-.8-7-2.6-10.5-.6-1.1-1.7-1.7-2.7-1.2-1 .4-.7 1.3-.6 2.1.3 3.5.7 6.9.6 10.4-.1 2.3-.4 4.6-.5 6.8-.1 1.8.9 2.6 2.5 1.9 1.3-.5 2.2-1.5 2.5-3 .6-2.3.6-4.7.8-6.5zm225.9-167.8c.1-1.3-.1-2.3-.6-3.3-2.8-5.2-6-10-10.3-14-.5-.5-1.1-1-1.7-1.3-1.1-.6-1.6-.2-1.8 1-.2 1.6.6 2.7 1.6 3.9 4.6 5.1 9 10.3 10.5 17.3 0 .1 0 .2.1.3.2.2.4.4.6.5.4.1.7-.1.9-.4.4-1.4.7-2.7.7-4zm-44-45.2c0-.9-.3-1.6-.6-2.4-1.4-3.3-3.1-6.4-5-9.4-1.4-2.3-2.7-4.5-4.2-6.7-.8-1.2-3-2.1-3.8-1.6s-.7 2.6.3 4c3.8 5.2 7.1 10.8 10.3 16.5.2.4.5.8.7 1.1.3.4.8.9 1.4.7s.7-.8.8-1.3c0-.4.1-.7.1-.9zM284.9 310.1c.6-2.3-1.4-3.7-3-5.1s-2.6-1.1-3.1.9c-.9 3.4-1.3 7-1.5 10.5-.1 1.4.6 2.4 1.4 3.4.8.9 1.3.9 2.2.1 2.9-2.5 4-5.7 4-9.8zM474 176.7c.9-2.2.9-4.5.4-6.7-1.1-6-4.1-11.1-7.5-16-.4-.5-.8-1-1.5-1.2-1.2-.4-2.5-1.3-3.5-.1-1.1 1.3.3 2.2 1 3 4.9 6.4 9.1 13.1 11.1 21zM288.5 340.1c0-1.2.1-2.4 0-3.6-.1-1.4-2.2-3.2-3.9-3.3-1.3-.1-2.4 1-2.6 3-.2 1.7-.1 3.5-.4 5.2-.3 2.3.6 3.5 2.6 4.4 2.3 1.1 3.8.4 4.2-2.2.2-1.1.1-2.3.1-3.5zm199.3-227.6c0 1.1 0 2.3 1.4 2.9 1.2.5 1.8-.5 2.5-1.2l7.6-7.5c1-.9 1.1-1.8.5-2.9-.4-.7-.9-1.4-1.5-1.9-.8-.7-1.5-.7-2.3.1l-7.5 8.3c-.6.7-.8 1.3-.7 2.2zM305.1 339.6c1.1 3.2 1.5 6.5 2 9.9.2 1.4 1.1 2.7 1.8 4 .6 1 1.5 1 2.1 0 .3-.5.4-1 .5-1.6.4-3.2.2-6.4-.9-9.5-1-2.8-2-3.3-5.5-2.8zm185.4-191.2c1.5-2.3 1.6-4.2.6-6.3-1.9-4-4.2-7.7-7.5-10.7-.5-.4-.9-1.1-1.6-.8-.8.4-.7 1.2-.7 2s.3 1.4.8 2c3.5 3.9 6.5 8.3 8.4 13.8zm-11.7 13.7c-.1-6-1.8-11.4-5.4-16.3-.2-.3-.5-.6-.7-.8-.9-.6-2-.8-2.8-.1-.7.6-.7 1.6-.2 2.5.1.2.3.5.4.7 3.4 4.3 6.2 9 8.7 14zM363.1 437.4h12.6c1.5 0 1.8-1.3 2.1-2.5.5-1.8.4-1.9-1.4-2-2.7 0-5.5.1-8.2-.1-2.3-.2-3.8.6-4.7 2.8-.1.5-.5.8-.4 1.8zm-40.2-20.6c-2.2.1-4 .7-5.4 2.2-.4.5-.8 1-.7 1.7.4 1.9 1.3 3.4 3 4.3.6.3 1.1.3 1.3-.4.8-2.3 1.7-4.6 3.2-6.6.4-.6 0-1-.7-1.1-.3 0-.6 0-.7-.1zm108.3-262.5c-.2 2 .2 3.6.5 5.2.1.6.4 1 1 1.1 1.7.3 2.9-.8 3.4-2.4.7-2.2-.2-3.7-1.9-4.8-.8-.6-1.5-2-2.7-1.4-.9.4-.1 1.7-.3 2.3zm125.2 122.5c2.4 1.2 4.7 1.1 6.9 1 .9-.1 1.6-.5 2.2-1.1 1.1-1.1.9-3.1-.4-3.8-1.3-.6-4.3-.1-5.4.9l-3.3 3zM331.1 433.4c-.1-.2-.2-.4-.2-.7h-6.8c-.5 0-.9.1-1.1.6-.4.9.2 2.6 1.2 3.4 1.1 1 2.1 1.1 3.2.2 1.3-1 2.4-2.3 3.7-3.5zm23.4-.7h-2.4c-.4 0-.9.1-1.2.6-.7 1-.6 3.1.2 3.9.8.7 3 .6 3.8-.2.4-.4.7-.9.9-1.3.4-.8 1.4-1.6.9-2.4-.4-1-1.6-.4-2.2-.6zm210-172.3c.9.9 2.2.9 3.3 1.3.8.3 1.4-.1 1.6-.9s.3-1.6.2-2.4c-.1-1.1-1-1.4-1.9-1.8s-1.3.4-1.7 1c-.4.9-1.3 1.7-1.5 2.8zM450 181.3c-.7-1-1-1.5-1.4-2-2.4-3.1-2.6-3.1-4.6.4v.5c1.7.8 3.5 1 6 1.1zm-84.5 310.5c-7.2 0-12.6-5.5-12.5-12.5.1-6.1 4.3-12.1 12.6-12.2 8 0 12.7 6.3 12.5 12.5-.3 7-5.6 12.3-12.6 12.2zm9.7-12.1c.1-5.7-3.9-10-9.3-10.1-5.7-.1-10 4.1-10.1 9.7s4.2 10.1 9.7 10.2c5.3.1 9.6-4.2 9.7-9.8z" fill="#030303"/><path d="M20.4 116H97c.5.9-.3 1.2-.7 1.6l-16.1 18c-3.8 4.2-5.7 9.3-7.1 14.7-2.2 8.9-2.3 17.9-1.4 27 .1 1 .3 2 .4 3 0 .1.1.1.6.3 10-12.8 20.6-25.1 32.9-35.8.2.1.4.3.6.4l-15.7 31.2c1.1.4 1.5-.3 2-.6l55.8-33.5a16.43 16.43 0 0 1 8.3-2.5c4.3-.1 7.2 2.3 9.6 5.5 3.4 4.5 5.1 9.7 6 15.2.5 3.1.6 6.2.7 9.3 0 1.9-.4 3.5-1.6 5.1-1.8 2.5-3.2 5.1-4.8 7.7-3.5 5.5-3.6 11.4-2.8 17.5 2.5 18.1 9 34.8 16.7 51.2 8 17 17.7 33.1 28.1 48.8 1.2 1.8 1.6 3.5 1.8 5.6.2 4.3.2 8.6.9 12.9.2 1 .5 1.9 1.1 2.8 2.7 3.9 5.8 7.6 9.6 10.5 1.1.9 1.6 1.8 1.5 3.2-.3 3.9.3 7.9.6 11.8.1 1.6.6 3.1 2 4 1.1.7 1.3 1.8 1.3 3.1 0 3 0 6 .3 9.1.4 4.4 1 8.7 2.7 12.8.7 1.6.4 2.6-.9 3.8l-18.2 18c-2 1.9-3.9 3.9-5.8 5.8-2.2 2.2-4.9 3.5-8 4-1.7.3-2.8-.2-3.8-1.8L167 361.1l-30.4-50.6-79.4-132.7-35.5-59.1c-.5-.7-1.2-1.4-1.3-2.7z" fill="#feb800"/><path d="M201.1 188.3c.2-20 6.9-36.8 21.2-50.5 1.5-1.4 3.1-2.6 4.5-4 5-4.5 11.1-6.6 17.6-7.7 7.5-1.3 15.1-1.8 22.7-1.2 14.6 1.2 28.2 5.9 41.2 12.6 15.2 7.9 28.8 18.1 41.4 29.7 13.4 12.4 25.4 25.9 36.2 40.5.2.3.4.6.7.9 1 1.1.8 2-.2 3.1-4.1 4.2-8.1 8.5-12.1 12.8l-70.2 75.1c-2.5 2.7-2.1 2.2-4.8 1-20-9.6-38.5-21.5-55.1-36.3-14.4-12.9-26.8-27.5-36-44.7-4.2-7.9-6-16.2-6.7-25-.2-2.2-.3-4.4-.4-6.3z" fill="#fffefe"/><path d="M325.5 453.7h17.3c2.9 0 3 .1 1.6 2.6L286.9 556c0 .1-.1.2-.1.2-1.3 2.3-1.6 2.3-3 0L214 439.8c-1.5-2.5-1.5-2.5.5-4.7l32-36.3c1.2-1.4 2.4-2 4.2-1.4 4.8 1.4 9.7 1.8 14.6 2.2 1.7.1 3.3.4 4.8 1.1 1.6.8 3.1.5 4.7-.3 3.6-1.9 6.3-4.7 8.6-7.9 2.7-3.7 4.6-7.9 6.1-12.2.5-1.3 1-2.1 2.5-1.9 2.7.4 4.7-1.1 6.6-2.7 3.4-2.9 6.2-6.3 8.3-10.1.9-1.6 1.9-2.7 3.8-3.3 2.9-1 4.8-3 5.4-6.3 1-6 1.6-12 .2-18-.5-2.2-1.2-4.5-2.5-6.4-.9-1.3-.8-2.6-.4-4 .5-1.8 1.9-2.4 3.6-1.6a518.74 518.74 0 0 0 34.1 12.9c1.6.5 1.8 1 .6 2-5.7 5.3-5.4 11.8-4.1 18.6.6 3.2 1.8 6.1 3 9.1 1.9 4.5 3.4 9.1 4.3 13.9.1.4.2.7.2 1.1.5 4.1.3 4.5-3.8 5.2-3.5.6-3.5.6-3.3 4.2.3 3.3.5 6.6 0 9.9-.3 1.9-1.2 3.2-2.8 4.1-3.4 1.8-7 2.6-10.8 2.7-4.1.1-8.2-.1-12.3.6-2.7.5-5.4 1.1-7.8 2.4-4.9 2.6-7.6 6.7-7.1 12.3.3 3.5-.4 6.4-2.2 9.3-1.1 1.7-1.8 3.6-2.7 5.4-1.4 2.5-1.8 5.1-1.7 7.9.2 3.3 1.9 5.3 5 5.9.9.2 1.8.2 2.7.2 5.8.1 11.5.1 17.2 0 0 .1 0 0 0 0z" fill="#feb800"/><path d="M400 230.2c1.5 1.2 2 2.7 2.8 4 8 13.5 15.2 27.3 20.4 42.2 2.4 6.9 4.4 14 5 21.3s.8 14.6-2.6 21.5c-1.6 3.3-3.9 5.9-7.1 7.8-5.9 3.5-12.3 5-19.1 5.4-12.5.8-24.6-1.5-36.6-4.8-12.5-3.5-24.7-8.1-36.5-13.5-.6-.3-1.2-.5-1.8-1.2l75.5-82.7z" fill="#fffefe"/><path d="M448.8 274.2l-4.5-12.2a698.76 698.76 0 0 0-21.6-52.2c-2.5-5.3-2.7-3.9 1.1-8.2 4.3-4.8 8.5-9.6 12.6-14.5 1.6-1.9 3.1-2.7 5.6-1.7a43.08 43.08 0 0 0 11.2 2.4c.9.1 1.8.4 2.6.8 3.7 1.8 7.7 2.2 11.8 2.2 2.8 0 4.9-1.1 6.7-3.2 1.8-2.2 3.2-4.7 4-7.5.5-1.9 1.5-3.3 3-4.4 1.1-.8 2-1.9 3.2-2.5 4.7-2.5 6.3-6.9 7.5-11.6.2-.7.4-1.4.4-2.1 0-1.4.7-2.4 1.9-3.1 1.1-.7 1.9-1.7 2.6-2.8.5-.8 1-1.5 1.9-1.9 1.8-.9 2.7-2.5 3.1-4.3 1.6-6.3 2.1-12.5-1.4-18.4-1-1.7-1.9-3.6-2.8-5.3-.5-1-.5-1.9.4-2.7 1.5-1.4 2.9-2.8 4.3-4.2.6-.6 1.2-.7 2-.7h34.9c.2 0 .3.1.5.2 0 .1.1.2.1.3s.1.2 0 .3c-.2.4-.3.9-.5 1.3L449.5 274c.1-.2-.2-.1-.7.2zm-83.7-147.3c.3-3.6 1.8-6.5 4.8-8.5 2.6-1.8 5.4-1 8.2-.3 1.3.3 2.6 1 3.8 1.6 3.2 1.6 5.4 3.7 4.7 7.7-.4 2.3.5 4.5.7 6.8.2 1.9 1.2 2.9 3 3.4 4.8 1.4 9.8 2.3 14.7 3.2 5.2.9 10.5 1.6 15.7 2.3 1.3.2 2.5.6 3.4 1.6.7.7 1 1.5.8 2.5-1 6.2-.2 12.2 2.5 17.9.8 1.6.7 2.8-.6 4.2l-14.2 14.9c-.6.6-1.2 1.2-1.8 1.7-.6.6-1.2.5-1.6-.1l-1-1.3c-12.9-19-26.7-37.2-42-54.3-1.1-1.3-1.1-1.6-1.1-3.3z" fill="#feb800"/><g fill="#fffefe"><path d="M303.9 323.8c-1.5 0-5.2-2.5-6-4.1-.5-1 .2-1.6.8-2.1l6.7-7.3 47.8-51.6 83.9-90.5c2.1-2.5 3.6-2.6 5.2.8.7 1.4.3 2.2-.6 3.1l-12.3 13.7-123.1 136.6c-.7.6-1.1 1.4-2.4 1.4zM173.7 448.3l4-10.3 7.5-18.9c.7-1.8 1.5-2.8 3.7-2.8 3.2 0 6.4-.7 9.4-1.7 4.1-1.3 7.7-3.1 10.8-6.2l21.6-20.7.8-.8c1.8-1.6 1.8-1.6 3.4.2 1.9 2.2 3.9 4.4 6.1 6.3 1.7 1.4 1.7 1.6.2 3.2l-19.7 21.8-21.5 23.9c-2.1 2.3-4.5 4.3-7.5 5.4-1.8.7-3.6.9-5.6.7-3.4-.3-6.8-.2-10.2-.2-.8.1-1.7.1-3 .1zm-66.2-289.8l21.6-40.5c-1.3-.5-1.9.3-2.6.8-6.6 4.2-12.6 9.2-18.3 14.4-10.5 9.4-20.4 19.5-30 29.8-.5.5-.8 1.2-1.8 1.3.1-3 .7-5.8 1.4-8.6.8-3.1 1.8-6.1 2.6-9.2.7-2.5 2.2-4.6 3.9-6.5 8.5-9.2 17.3-18.2 26.1-27.1l8.8-9c1.3-1.3 1.7-1.4 3-.3 9.1 8 16.4 17.3 19.8 29.1 1.3 4.5 1.7 3.7-2.3 6.3-10.1 6.7-20.4 12.9-30.9 19-.2.1-.5.2-1.3.5zm250 290.2h-47c-4.6.3-5.6-1.9-4-5.8 1.3-3.2 3.2-6.1 5-9.2.6-1 3.9-1.4 4.8-.8.5.4.5.9.5 1.5.1 1.5.4 2.9 1.1 4.2 1.4 2.5 3.5 4 6.4 4.1 2.5.1 4.9 0 7.4.1 1.4 0 2.2-.6 2.6-1.9.8-2 1.7-3.8 2.4-5.8.5-1.4 1.5-2 2.9-2.1h.5c1.5 0 3.4-.5 4.6.1 1.2.7.4 2.7.5 4.1.3 3.7 2.4 5.8 6.3 5.8 4.5.1 9 0 13.5 0h12.9c3.8 0 5.3-1.3 6.1-5 .3-1.4.4-2.9.6-4.3.1-.6.2-1.2.8-1.3 1.4-.2 2.7-.2 4.1 0 .8.1.8.9.9 1.5.2 1.3.4 2.5.7 3.8 1.1 3.7 3.2 5.3 7 5.3h6.9c1.2 0 1.9.2 2.1 1.8.4 4 1 3.8-3.4 3.8l-46.2.1zm-90.6-56.4c-2.5-1.7-4.1-3.8-5.8-5.8-6.7-8.2-10.5-17.7-13-27.9-1.6-6.3-2.6-12.7-3-19.2-.1-2 .1-2.4 2-3 2.5-.9 4.9-.3 7.1.9 2.8 1.4 5.1 3.6 7.1 6 1.9 2.2 3.5 4.7 5.1 7.1 1.8 2.7 2.4 5.7 2.6 8.8.2 4.4.6 8.7.4 13.1-.5 6.6-1.1 13.2-2.5 20zm247.4-152.5l.5-5.2c.2-1.6-.2-2.4-1.8-2.8l-5.8-1.8c-2.6-.8-2.6-.8-2.2-3.4.3-2.4.5-2.5 2.7-1.9 23.6 6.5 47 13.7 69.8 22.7 1.6.6 3.2 1.3 4.8 2 3.2 1.4 4 3.4 2.7 6.6-.7 1.8-1.8 3.4-2.9 5-.8 1.1-1.6 2.2-2.4 3.4-.7 1.2-1.6 1.5-3 1-3.2-1.1-3.1-1-2.7-4.3.2-1.7.8-3.4.4-5.2-.3-1.5-.9-2.5-2.4-3.1-1.6-.6-3.2-1.3-4.8-2-1.3-.6-2.2-.2-3 1-1.3 1.9-2.7 3.7-4 5.6-1.1 1.5-1.5 1.5-3.5.9-2.4-.8-2.5-.9-2.5-2.9 0-2.4-.1-4.8 0-7.1 0-1.5-.5-2.3-2-2.8l-25.5-8.5c-1.8-.6-1.9-.5-2.6 1.2-.8 2.1-1.5 4.1-2.2 6.2-.4 1.2-1 1.6-2.2 1.2-1.4-.5-2.8-.9-4.2-1.2-1.3-.3-1.8-1-1.4-2.4.1-.7.1-1.4.2-2.2zm-80-101.9c-.4-2.4.6-5 1.9-7.6 5.5-10.4 12.7-19.5 21.8-26.9 4.3-3.5 9.8-2.2 13.6 1.7.6.6.7 1.5.6 2.3-.2 1.3-.8 2.4-1.8 3.3-10.1 9.6-19.1 20.2-27.4 31.4-1.4 1.9-3.1 3-5.5 3.1-2.2.2-2.4 0-2.9-2.2-.2-1.5-.3-3-.3-5.1zm-391 310.4l3.7-6.6 11.3-20.1c1.9-3.5 4.8-5.1 8.7-5.2 4.4-.1 8.7 0 13 0 .3 1-.3 1.6-.7 2.2L64 445.9c-1 1.9-2.2 2.5-4.3 2.5-5.3-.2-10.6-.1-16.4-.1z"/><path d="M469 181.6c-.1.7-.1 1-.1 1.4-.3 2.5-.6 2.7-3.2 2.3-2.8-.4-5.1-1.5-7.1-3.8-5-5.7-9.6-11.7-13.3-18.4-1.9-3.4.8-8.3 4.7-8.5 1-.1 2-.1 3 0 2.1.2 3.7 1 5.1 2.8 4.4 5.8 8.3 11.8 10 19 .5 1.8.7 3.7.9 5.2zM285.4 364.3c.2 4.7 0 8.6-.7 12.4-.8 5-2.7 9.7-5.6 13.9-.8 1.2-1.9 2.3-3.3 2.9-.5.2-1.1.5-1.6.1s-.4-1-.3-1.5c.8-3.1 1.2-6.3 1.6-9.5 1-8.7.3-17.4-1.4-26-.6-2.9-.4-3.5 2.2-5.2 3.4-2.2 5.2-1.7 7.5 1.7 1.2 1.8 1.5 3.9 1.6 6s0 4.1 0 5.2zm190.7-241.5c.4 2.2-.6 4.2-2 6.2-4.7 6.8-10.4 12.7-16.8 18.1-2.4 2-5.2 1.4-7.9 1.2-.7 0-1-.7-1-1.4-.1-1.7.5-3.2 1.4-4.6 2.4-3.7 5.2-7.1 8.2-10.3 4.4-4.8 9-9.4 14-13.5.7-.6 1.3-1.5 2.3-1 1.1.5 1.7 1.4 1.7 2.6.1.6.1 1.5.1 2.7zM239.3 341.9c.8 18.4 6.3 35 17 50.4-5-2.1-8.8-4.7-12-8.2-6.1-6.5-9-14.5-10.4-23.1-.5-3.1-.7-6.2-.7-9.3-.2-4.4 1.8-7.6 6.1-9.8zM144.9 86.1l1.4-9c.8-4 .5-8 .5-12 0-3 0-3 2.9-3.4 1.7-.2 3.4-.6 5.2-.6 1.1.1 2.2 0 2.6 1.4.4 1.3.7 2.3-.5 3.4-3.2 3.1-5.3 7-6.5 11.3-.7 2.5-.7 2.5 1.8 3.4 6.5 2.2 10.5 6.5 11.4 13.4.4 2.9-.2 5.5-2.7 7.3-2.4 1.7-4.9 1.5-7.7.4 4.6-3 4.9-7.7 3.8-11.8-.6-2.3-2.3-3.6-4.7-4.1-2.3-.5-4.7 0-7.5.3zM404 101.2c1.2-.1 2.1.4 3.1 1 7.8 5 15.1 10.7 22.2 16.7.9.8 1.7 1.6.9 2.8-.7 1.1-1.8 1.1-2.9.7-.5-.2-1-.5-1.5-.7l-23.1-12.1c-2.8-1.4-2.9-3.7-3.3-6.1-.1-.9.4-1.6 1.4-1.7l3.2-.6zM230.2 320.1c.1 1.9-.3 3.5-.7 5.1-.2 1.2-1 1.7-2.1 1.7-1.4 0-2.8-.1-3.9-1-4.4-3.6-7.9-7.9-8.8-13.8-.3-1.8-.2-3.7.3-5.4s1.7-2.3 3.4-1.8c1.6.5 2.9 1.5 4.1 2.6 2.7 2.4 4.7 5.3 6.7 8.3 1 1.4 1.1 2.9 1 4.3zm72.3 32.2a28.88 28.88 0 0 1-1.2 10.1c-.6 2-1.5 4-3.3 5.3-.8.6-1.7 1.3-2.7.8s-.9-1.5-.9-2.4c.1-4.3-.5-8.6-1.7-12.7-.2-.6-.2-1.3-.1-1.9l2-10.5c.4-2.1 1.3-2.5 3.3-1.6 1.8.9 2.7 2.4 3.4 4.1 1.2 2.8 1.3 5.8 1.2 8.8z"/><path d="M417 86.4c0-3.2.3-3.5 3.3-3.4 1.5.1 2.8.7 4 1.6 7.1 5.7 13.5 12.1 19.5 18.9 1.1 1.3 1.2 3.2.1 4.2s-2.8.9-4.1-.6c-6-6.9-13-12.6-20.9-17.1-1.7-.9-2.1-2.2-1.9-3.6zM230 344.7c-2.9-3-3.3-7.4-.8-10.6 4.8-5.9 10.6-10.3 18.2-12 3.4-.8 7.3 2.6 7 6.1-.2 1.8-.5 2-2.2 2-2.6-.1-5.3-.5-7.9-.2-1.9.2-3.5.9-4.9 2.2-3.3 3.1-6 6.6-8.1 10.7-.3.5-.4 1.3-1.3 1.8zm38.6-20.8c1.3.2 2.6.4 3.9 1 2.9 1.4 4 3.7 3 6.7-1.4 4.2-4.4 7-8 9.4-.9.6-1.5.3-2.1-.4-2.1-2.2-4.2-4.3-6.4-6.4-.9-.9-.8-1.7-.2-2.6 2-2.9 4.6-5.2 7.5-7.2.6-.5 1.4-.5 2.3-.5z"/></g><path d="M382.1 377.2c-.7-4.3 1.6-7.2 3.7-10 2.6-3.6 6.1-6 10.6-6.7.5-.1 1.1-.1 1.6-.1.9 0 1.4.4.9 1.4-.2.3-.4.6-.5 1l-11.8 20.1c-.5.9-.9 2.3-2.2 2.1s-1.3-1.6-1.6-2.6c-.5-1.9-.9-3.7-.7-5.2z" fill="#feb800"/><path d="M412.1 92.8c1.6-.2 3 .3 4.3 1.3 6.1 4.6 12 9.6 17.5 15 .7.7 1.4 1.5 2 2.2s.7 1.5.1 2.3c-.6.9-1.5 1-2.4.7-.6-.2-1.1-.6-1.6-1-6.9-5-13.8-10-21.2-14.3-2.1-1.2-2.2-2.9-2.2-4.9 0-.8.5-1.1 1.2-1.2.8 0 1.6 0 2.3-.1zm-17.2 23.9c-.1-2.4 2.3-3.7 4.9-2.7.9.4 1.8.9 2.7 1.4 6.8 3.6 13.4 7.6 19.8 11.7a3.04 3.04 0 0 1 .7.5c.7.6 2 .8 1.6 2.2-.3 1-1.3 1.1-3.1.5l-22.7-8.1c-3.3-1.2-3.9-2-3.9-5.5zm-132.8 197c-.1 2.3-1.7 3.7-3.1 5.2-.4.4-1 .3-1.6.1-1.8-.7-3.2-2.6-3.2-4.6 0-5.2.2-10.4-.2-15.6-.1-1-.3-2-.4-3-.2-1.8.5-2.4 2.2-1.9 2.4.8 4.1 2.3 4.8 4.8.7 2.4.8 4.9 1 7.3.4 2.5 0 5.1.5 7.7zM428.2 78.4c0-.2 0-.4.1-.5.3-1-.4-2.5 1.1-2.7 1.5-.3 3.1-.4 4.3 1 5.4 6.7 10.7 13.5 14.5 21.2.4.7.9 1.5 0 2.2-1 .7-1.7.1-2.3-.6-3.2-3.7-6.5-7.4-10-10.9-1.9-1.9-4-3.8-6-5.6-1.8-1.6-1.9-1.8-1.7-4.1zm-32.9 47c.3.1.9.2 1.4.4 8.1 2.6 16 5.7 23.8 8.9.9.4 2.3.6 1.9 1.9s-1.6.7-2.6.5c-8.3-1.5-16.5-3.2-24.6-5.1-1.5-.4-2.6-.9-3-2.6-.8-2.7.1-4 3.1-4zm-158 191.4c-1.5-.3-2.3-1.5-3.2-2.5-1.9-2.2-3.5-4.7-5.1-7.2-.5-.9-.9-1.8-.9-2.8l.1-7.1c0-1.3.5-1.9 1.9-2 3.4-.1 3.5-.1 4.9 3.1.5 1.3.9 2.6 1.6 3.8 2.3 4.5 1.8 9.2 1.1 14 0 .2-.2.4-.4.7zm310.5-64.3v.5c0 2.8-.1 2.9-2.8 2.4-5.8-1.1-11.2-3.3-16.3-6.1-1.3-.7-1.7-1.5-1.1-2.8.1-.3.2-.5.3-.8 1-2.7 1-2.7 3.6-1.8l13.4 4.7c3.5 1.1 2.8 1.1 2.9 3.9zM484 165.6c-.1-4-.6-8-1.8-11.9-1.2-3.8-2.8-7.4-5.3-10.5-1-1.3-1.4-2.7-1.3-4.3 0-.8.1-1.5 1-1.8.8-.3 1.6-.4 2.3.4.4.5.9.9 1.3 1.4 3.5 4.6 5.7 9.8 6.8 15.4.7 3.7-.2 7.3-1.7 10.7-.3.4-.5.7-1.3.6zM247.7 312.9c-2.7-1.9-4.3-4-4.9-6.6-.8-3.6-1.1-7.2-1.2-10.9 0-1 0-2 1.4-2.2 2-.3 3.9.2 4.1 1.4.9 5.9 2.3 11.8.6 18.3zm24.8-5.3c-.2 1.9-.2 4.2-.8 6.6-.4 1.5-1.2 2.5-2.5 3-1.6.7-2.7-.1-2.5-1.9l.5-6.8c.2-3.5-.3-6.9-.6-10.4-.1-.8-.4-1.7.6-2.1s2.1.1 2.7 1.2c1.8 3.4 2.6 6.4 2.6 10.4zm225.9-167.8c.1 1.2-.2 2.5-.8 3.8-.1.3-.5.6-.9.4-.2-.1-.4-.3-.6-.5-.1-.1-.1-.2-.1-.3-1.5-7-6-12.2-10.5-17.3-1-1.1-1.8-2.2-1.6-3.9.2-1.2.7-1.6 1.8-1 .6.3 1.2.9 1.7 1.3 4.3 4 7.6 8.8 10.3 14 .6 1.2.7 2.3.7 3.5zm-44-45.2c0 .2-.1.5-.1.8-.1.6-.3 1.1-.8 1.3-.6.2-1-.2-1.4-.7-.3-.4-.5-.7-.7-1.1-3.2-5.6-6.4-11.2-10.3-16.5-1-1.4-1.1-3.5-.3-4 .7-.4 2.9.4 3.8 1.6 1.5 2.2 2.9 4.5 4.2 6.7 1.8 3.1 3.6 6.1 5 9.4.3.9.6 1.6.6 2.5zM284.9 310.1c0 4.1-1.1 7.3-4 9.8-.9.8-1.4.8-2.2-.1-.9-1-1.5-2-1.4-3.4.2-3.6.7-7.1 1.5-10.5.5-2 1.5-2.3 3.1-.9s3.6 2.8 3 5.1zM474 176.7c-1.9-8-6.1-14.6-11.1-20.9-.7-.9-2.1-1.8-1-3 1-1.2 2.4-.3 3.5.1.6.2 1.1.7 1.5 1.2 3.5 4.9 6.4 10 7.5 16 .4 2.1.5 4.4-.4 6.6zM288.5 340.1v3.6c-.3 2.6-1.8 3.3-4.2 2.2-2-.9-3-2.2-2.6-4.4l.4-5.2c.2-1.9 1.2-3 2.6-3 1.6.1 3.8 1.8 3.9 3.3l-.1 3.5zm199.3-227.6c-.1-.9.1-1.5.6-2.1l7.5-8.3c.8-.9 1.5-.9 2.3-.1.6.5 1.1 1.2 1.5 1.9.6 1.1.5 2-.5 2.9-2.6 2.4-5.1 5-7.6 7.5-.7.7-1.4 1.6-2.5 1.2-1.3-.6-1.3-1.9-1.3-3zM305.1 339.6c3.5-.5 4.5 0 5.5 2.8 1.2 3.1 1.3 6.2.9 9.5-.1.5-.2 1.1-.5 1.6-.6 1-1.5 1-2.1 0-.7-1.3-1.6-2.6-1.8-4-.5-3.3-.9-6.7-2-9.9zm185.4-191.2c-1.9-5.5-4.9-9.8-8.3-13.9-.5-.6-.8-1.2-.8-2 0-.7-.1-1.6.7-2 .7-.3 1.1.4 1.6.8 3.3 3 5.7 6.7 7.5 10.7.9 2.1.9 4-.7 6.4zm-11.7 13.7c-2.5-5-5.4-9.6-8.8-14-.2-.2-.3-.4-.4-.7-.4-.9-.5-1.9.2-2.5.8-.7 1.9-.5 2.8.1.3.2.5.5.7.8 3.7 4.8 5.4 10.3 5.5 16.3zM363.1 437.4c-.2-1 .3-1.3.4-1.7.8-2.2 2.3-3 4.7-2.8 2.7.2 5.5 0 8.2.1 1.8 0 1.8.1 1.4 2-.3 1.2-.6 2.4-2.1 2.5-4.2-.1-8.4-.1-12.6-.1zm-40.2-20.6c.1 0 .5 0 .8.1.7.1 1.1.5.7 1.1-1.5 2-2.4 4.3-3.2 6.6-.2.7-.7.7-1.3.4-1.7-.9-2.7-2.4-3-4.3-.1-.7.2-1.2.7-1.7 1.3-1.5 3-2.1 5.3-2.2zm108.3-262.5c.2-.6-.6-1.9.4-2.4 1.2-.6 1.9.8 2.7 1.4 1.7 1.2 2.6 2.6 1.9 4.8-.5 1.6-1.8 2.7-3.4 2.4-.6-.1-.9-.6-1-1.1-.4-1.5-.8-3.1-.6-5.1zm125.2 122.5l3.3-3c1.1-1 4.1-1.5 5.4-.9s1.5 2.6.4 3.8c-.6.6-1.3 1-2.2 1.1-2.2.1-4.5.2-6.9-1z" fill="#fffefe"/><path d="M331.1 433.4l-3.7 3.6c-1.1.9-2.1.8-3.2-.2-1-.9-1.6-2.6-1.2-3.4.2-.5.7-.6 1.1-.6h6.8c0 .2.1.4.2.6zm23.4-.7c.7.1 1.8-.5 2.3.4s-.5 1.6-.9 2.4c-.2.5-.5 1-.9 1.3-.9.9-3 .9-3.8.2s-.9-2.9-.2-3.9c.3-.4.7-.5 1.2-.6.6.2 1.3.2 2.3.2z" fill="#feb800"/><path d="M564.5 260.4c.2-1.1 1-1.9 1.6-2.8.3-.6.7-1.3 1.7-1 .9.3 1.7.7 1.9 1.8.1.8 0 1.6-.2 2.4-.3.9-.8 1.2-1.6.9-1.2-.4-2.5-.4-3.4-1.3zM450 181.3c-2.5 0-4.3-.3-6-1.1 0-.3-.1-.4 0-.5 2-3.5 2.3-3.5 4.6-.4.4.5.7 1 1.4 2zm-74.8 298.4c-.1 5.6-4.3 9.9-9.7 9.8-5.5-.1-9.8-4.6-9.7-10.2.1-5.7 4.4-9.8 10.1-9.7 5.3.1 9.4 4.4 9.3 10.1zm-3.5 6.6c-.9-1.4-1.7-2.7-2.5-3.8s-1.1-1.9.6-2.7 1.9-2.6 1.6-4.3-1.5-2.7-3.2-3c-2-.3-4-.2-6-.2-1.2 0-1.5.7-1.5 1.8v11c0 .3 0 .6.1.8.1.6.5.9 1.2.9.6 0 1.1-.3 1.1-.9.1-1 0-2 0-3 0-.7-.1-1.6.8-1.9 1-.3 1.8.2 2.3 1.1.7 1.1 1.3 2.2 2 3.3.6 1.1 1.5 1.7 3.5.9z" fill="#fffefe"/><path d="M371.7 486.3c-1.9.8-2.9.2-3.6-1.1l-2-3.3c-.5-.9-1.3-1.4-2.3-1.1-.9.3-.8 1.1-.8 1.9v3c0 .7-.5.9-1.1.9s-1.1-.2-1.2-.9c-.1-.3-.1-.5-.1-.8v-11c0-1.1.3-1.8 1.5-1.8 2 0 4-.1 6 .2 1.7.3 2.9 1.2 3.2 3 .3 1.7.1 3.5-1.6 4.3-1.6.8-1.4 1.6-.6 2.7l2.6 4zm-6-7.9c.2 0 .9-.1 1.5-.3 1.1-.2 1.4-1 1.3-2s-.8-1.4-1.6-1.5c-.9-.1-1.8-.1-2.7-.1-.7 0-1.1.4-1.2 1.2-.3 2 .3 2.7 2.7 2.7z" fill="#030303"/><path d="M365.7 478.4c-2.4 0-3-.7-2.7-2.7.1-.8.5-1.2 1.2-1.2l2.7.1c.9.1 1.6.5 1.6 1.5.1 1-.3 1.8-1.3 2-.6.2-1.3.3-1.5.3z" fill="#fffefe"/></svg>