<svg xmlns="http://www.w3.org/2000/svg" viewBox="0 0 600 600" fill="#fec200" xmlns:v="https://vecta.io/nano"><path d="M505.1 289.2C493 268 484.5 245.5 482 221c-2.2-21.1-1.2-42 2.9-62.8 3.3-16.8 9.1-32.8 17.7-47.7 1-1.8.5-2.3-1.2-2.7a78.16 78.16 0 0 1-13.4-4.5c-26.7-11.3-47.3-30-63.6-53.7C415.9 37.3 409.3 24 404.7 9c-6.6 6.6-13.5 11.8-21.3 15.7-13.6 6.8-28.4 8.9-43.4 8.9-71.2.1-142.5-.1-213.7-.3-2.6 0-3.8.7-4.7 3.1l-26.3 66c-.9 2.3-.6 3.1 1.6 4.3 16.8 8.8 25.8 22.9 25.8 41.8l.1 329.7c0 3.1-.4 6.2-1.1 9.2-3.2 15-11.9 25.7-25.4 32.6-1.4.7-2.2 1.1-1.4 3l26.7 65.2c.8 1.9 1.8 2.5 3.8 2.5h75.1c2.3 0 3.2-.8 4-2.7l26.4-64.2c.9-2.3.4-3-1.6-4-16.8-8.8-25.7-22.9-25.9-41.8l-.2-126.3c0-2.9.8-3.5 3.5-3.5l120.2.1c7 0 13.9 0 20.9.6 17 1.5 32.4 7 45.8 17.6 3.7 2.9 7.1 6 10.8 9.1.3-.7.4-1.1.6-1.5 5.5-15.8 14.4-29.5 26.2-41.2 20.2-20.1 44.8-32.5 72-39.8 3.3-.8 3.3-1.6 1.9-3.9zm-92.8-46.7c-.1 21.4-12.9 29.9-28.8 32.8-6.3 1.1-12.8 1.3-19.2 1.3-52.1 0-104.2-.1-156.3 0-3.1 0-4.1-.5-4.1-4l.1-83-.1-83.3c0-2.8.6-3.6 3.5-3.6l164.4.2c18.4.1 33.7 9.5 38.9 26.5 1.1 3.5 1.7 7 1.7 10.7l-.1 102.4zM269 572.3l-4.5 12.5c-.6 1.7-1 3-3.4 3s-2.8-1.5-3.3-3.1c-1.4-4-2.8-8-4.7-12V585c0 1.7 0 2.9-2.3 2.8-2.1 0-2.5-.8-2.5-2.7.1-5.6.1-11.2 0-16.8 0-1.9.4-2.7 2.5-2.7 5.4 0 5.4-.2 7.2 5l3.2 9 4.1-11c.9-2.5 6.3-4.2 8.5-2.7.8.6.5 1.3.5 2l.1 17.4c0 2-.9 2.2-2.5 2.3-1.7.1-2.2-.6-2.2-2.2.1-4.3 0-8.7 0-13-.2 0-.4-.1-.7-.1zm-35.4 6.2v-4.2c0-4.2 0-4.3-4.2-4.3-1.8 0-2.5-.5-2.4-2.4.1-1.4.6-1.8 2-1.8h13.8c1.7 0 1.9.8 1.9 2.2.1 1.6-.6 2.1-2.1 2-.6-.1-1.3.1-1.9 0-1.9-.3-2.6.4-2.6 2.5.2 4.3 0 8.6.1 12.9 0 1.8-.6 2.4-2.4 2.4s-2.5-.6-2.4-2.4c.3-2.4.2-4.7.2-6.9z"/></svg>