<svg xmlns="http://www.w3.org/2000/svg" viewBox="0 0 252 252" xmlns:v="https://vecta.io/nano"><path d="M76.32 56.565c-4.25 0-8.5.125-10.625.25-6.375.75-14.125 2.375-20.125 4.25-21.625 6.875-38.25 20.75-42.5 35.5-.375 1.125-.625 2.5-.75 3.25-.25 2.875 1.25 7 3.625 9.625 4.875 5.375 12.5 6.5 17.625 2.75 1.75-1.25 2.875-2.625 4.875-5.625 2.375-3.75 6.875-9.25 7.25-8.875v1.5c-.125.75 0 3.375.125 5.625l3.5 71c.25 5.625 1.125 8.75 3 11.625 1.375 2 2.25 2.625 4.875 3.875s5 2 8 2.75c3 .625 9.125.75 11.625.125 3.25-.75 6.125-2 8.125-3.375 1.125-.875 2.875-3.625 3.5-5.75.625-1.75.625-2.125.75-7.375.125-4.625 0-8.75-.5-23.625v-.625l2.75-.375c11.375-1.625 22.75-6.25 31.375-12.875l1.5-1.125.125 6c.125 9.875-.5 13.875-2.5 17.875-2.375 4.625-4.625 5.5-10.875 4.375-1.625-.375-3.5-.625-4.125-.625-2.625 0-5.125 1.625-6.375 4.125-.75 1.5-.75 1.5-.75 4.5 0 2.875 0 3.125.75 4.75 1.875 4.75 6.875 9 13.375 11.625 2.25.875 5.5 1.75 7.375 1.875 4.25.375 10.25-1.5 15-4.625.875-.5 1.625-1 1.625-1 .125 0 .75.5 1.625 1.25 3.75 3.25 8 5.375 12.5 6.125 2.625.5 7.375.375 10.125-.375 3.875-1 7.875-3.25 11.5-6.5l1.25-1.125 1.25 1c1.75 1.5 3.375 2.5 5.5 3.625 9.5 4.75 20.25 3 28.5-4.75l1.75-1.625 1.375 1.25c11.375 9.625 26.625 9.125 37.375-1.375 2-1.875 4.25-4.625 5.5-6.5 3.625-5.5 4.5-11.25 2.375-15.75-2.375-5-7.875-6.75-12.875-4.125-1.375.625-2.625 2-6.125 5.625-1.75 1.875-2.875 2.625-3.5 2.375s-1.25-1.5-1.75-3.75c-.375-1.625-.5-2.625-.5-9.75l.125-10.375.125-2.5 2.125 1c3 1.375 4.625 1.75 6.75 1.625 3.25-.25 5.25-1.5 6.875-4.625 2.75-5 3.5-12 1.5-15.875-1.5-3-9.125-9.625-14.125-12.125l-1-.5.125-1.25c.125-.75.25-3.875.375-7 .25-5.625.25-5.75-.25-7.5-.625-2.375-1.625-4.125-3.125-5.625-2.125-2.125-4.75-3.125-8.375-3.125-3.5 0-6.875.875-11.125 2.875-2.25 1.125-6.5 3.75-7.875 5l-.625.625.25 12.5-2.25.375c-1.25.25-3.375.625-4.875 1s-2.75.625-2.875.625-.25-1.375-.125-4.375c.125-4.5-.125-9.875-.5-11-.875-2.5-4.125-4.875-7.75-5.75-2.125-.5-6.125-.375-8.75.5-4.625 1.375-9.625 4.375-13.375 7.875-2.125 2-2.25 2.25-2.25 2.875.125.875 1.125 12.25 1.375 15.25.125 1.25.125 2.375 0 2.375s-.875-.375-1.75-.875c-2.875-1.625-5.375-1.625-8.125-.375-2 1-3.75 2.875-4.375 4.625-.25.75-.5 2-.625 3.25-.125 1.875-.125 2-.625 1.875-3.375-1-3.875-1-7.75-1.125l-4-.125 1-1.875c1.875-3.625 3.25-8.125 3.875-12.375.375-2.375.375-10 0-12.75-1.375-10-5.75-18.5-12.875-25.375-8.125-7.75-18.875-12.5-33.125-14.375-1.125-.25-5.25-.375-9.5-.375h0zm-5.25 27.75c2.25 0 4.25.125 5.25.375 10.125 1.75 18.625 9 21.25 17.875.625 2.375.875 6.625.375 9-1 4.75-4.25 8.625-9.125 11.125-2.125 1.125-5.125 2.125-8 2.625-1.25.25-2.5.5-2.75.5h-.5l-.375-7.25c-.75-14.125-1.25-18.875-2.125-22.625-1.125-4.625-3.875-7.75-8.875-10.125L63.82 84.7l1.5-.125c1.25-.25 3.5-.25 5.75-.25zM197.32 133.7v7.25c0 4-.125 8.375-.25 9.75-.5 5.75-2.625 10.625-5.25 12.25-1.5 1-2.375.875-3.625-.375-1.125-1.125-1.75-2.625-2.375-5.25-.375-1.875-.75-11.875-.625-18l.125-4 2.75-.5c2.625-.375 4.75-.75 7.875-1l1.375-.125zm-52 4l1.75.875c2.125 1 4.375 1.75 7 2l2.125.25c.25 0 0 7.5-.375 12-.625 8.625-2.25 14-4.625 16.25-.5.375-1 .75-1.25.75-.875 0-2.375-2.25-3.25-4.875-1.25-3.625-1.375-4.75-1.375-16.375V137.7z" fill="#ffb81c"/><path d="M78.57 60.7c-4.75-.125-11 .125-14.25.625-18.875 2.5-35.875 10-46.75 20.625-5.25 5-8.375 9.75-10.125 15-.875 2.625-1 3.625-.625 5 1.25 5.25 6.5 9 11.375 8.125 2.625-.375 4.25-1.75 6.75-5.5.875-1.375 2.25-3.375 3-4.375 6.875-9.125 16.5-15.5 27.375-18.25 7.125-1.875 15.75-2.375 22.125-1.375a30.71 30.71 0 0 1 17.25 8.875c4 4.125 6.375 8.625 7.625 14 .5 2.125.5 6.625 0 8.75-2.375 10.625-11.875 17.125-26.625 18.125l-2.125.125v-.75c0-1.125-1.125-19.75-1.375-23.375-.5-6.625-1.25-10.5-2.5-12.375-1.375-2.125-4.125-4.125-7.5-5.25-1.375-.5-1.75-.5-6.125-.5-4.125 0-4.875.125-6.375.5-3.875 1-7.125 3.375-8.375 5.875-.75 1.5-1.25 4.125-1.25 6.125 0 .875.125 4 .375 6.875.625 9.5 1 17.625 1.875 37.375l2.125 36.375c.5 1.625 1 2.875 2 4.125 1.375 1.75 6.5 3.75 11.125 4.625 2.625.5 7.375.25 9.625-.25 1-.25 2.625-.875 3.625-1.375 2.125-1 2.875-2 3.875-4.375l.5-1.25V172.44c0-5.75-.125-13.25-.375-16.625l-.25-6.25 1.5-.125c8.25-.75 13.625-1.875 20-4.5 15.125-6 27-17.375 31.125-30.125 2.25-7.125 2.375-15.875 0-23.5-3.75-12.875-13.875-22.5-28.25-27.25-5.125-1.625-9.875-2.625-16-3.125-1.375-.125-2.75-.25-4.375-.25h0zm136.75 29.375c-2.625 0-2.875.125-5.125.875-2.75 1-5.875 2.375-8.25 4l-1.75 1.125.25 14.5h-.625c-2.25 0-8.625 1.25-14.25 2.875-2.125.625-3.875 1.125-3.875 1 0 0 0-3.125.125-7 .125-7.25 0-12.25-.375-13.125-.375-.625-1.625-1.5-3.125-2.25-1.125-.5-1.5-.625-4-.625s-3 .125-4.875.75c-3.625 1.25-7.375 3.5-10 6l-1.5 1.5.375 4.375c.75 7.5 1.375 16.75 1.25 17.125-.125.25-.375.375-2 .25-2.125-.125-3.875-.75-5.75-1.875-2.5-1.5-4.125-1.5-5.875 0-1.5 1.375-1.75 1.75-1.625 5.25 0 3.25.25 4.75 1.25 6.875.375.875.75 1.25 1.875 2 2.875 1.875 5.375 2.625 10 2.625h3l.125 1.875c.25 2.5-.25 14.375-.75 18.125-.875 7.875-2.5 12.5-5.375 15.25-2.25 2.25-4.25 2.75-6.625 1.5-2.25-1.125-4-3.75-5.25-7.75s-1.25-4.75-1.5-18.375c-.25-15.875-.375-16.875-2.25-17.875-2.125-1.125-3.625-1.375-8-1.375-4.5 0-6.375.25-8.75 1.375-1.375.625-2.75 2-2.75 2.625 0 .25-.125.875-.25 1.625-.125.625-.25 5.75-.375 11.375-.25 11.125-.375 12.625-1.625 16.375-1.75 5.125-4 8.125-7.625 9.875-1.25.5-1.5.625-4.125.625-2.125 0-3.5-.125-5.375-.5-1.5-.25-2.875-.5-3.375-.375-1.75.25-2.75 2-2.5 4.75.25 5.25 5.25 10 12.75 12.5 1.25.375 3.125.875 4 1 4.625.75 11.125-1.75 16.125-6l1.375-1.25 2.25 2.25c3.875 3.875 7.75 6 12.25 6.875s9.625-.125 13.75-2.5c2.25-1.375 5-3.625 6.75-5.75l1.625-1.875s1.125 1.125 2.5 2.375c3.875 3.75 7.625 5.75 12.25 6.625 3.5.625 7.375.125 11-1.375 3.25-1.375 7.5-4.75 9.875-7.875l1.25-1.5c.125 0 .875.75 1.875 1.75 2.125 2.125 3.875 3.625 6.25 5.125 6.5 3.875 14.75 4.25 21.625.875 5.75-2.875 12.125-10 13.75-15.375.5-1.75.5-4.5 0-6.125-.875-2.75-3.75-4.25-6.375-3.25-1.375.5-2.375 1.25-4.25 3.5-4.5 5.125-7.625 6.75-10.25 5.375-1.75-.875-3.25-3.875-4.125-7.75-.375-1.625-.375-3.125-.375-9.75 0-7.625.375-19.25.5-19.375a103.03 103.03 0 0 0 4.25 2c5.25 2.625 6.5 3.125 8.375 3s2.5-.625 3.625-2.75c1.375-2.625 1.875-4.625 1.875-7.875 0-2.5 0-2.75-.625-3.875-1.5-2.875-8.875-8.625-13.75-11l-2-.875.125-1.375c.25-3.25.625-9.125.625-12.375v-3.5l-.75-1.5c-.75-1.75-2-3-3.375-3.625-.625-.125-1.125-.125-3.5-.125h0zm-13.75 39.375v9.625c0 10-.125 13.125-.875 16.375-1.25 5.5-4 10-7.375 11.625-1 .5-1.75.625-2.875.75-2 .125-3.125-.375-4.75-1.875-2.25-2.125-3.625-5.625-4.25-10.625-.25-2.5-.375-23-.125-23.25s4.875-1.125 8.875-1.75c2.125-.375 5.375-.625 7.625-.75l3.75-.125z" fill="#003594"/></svg>