<svg xmlns="http://www.w3.org/2000/svg" viewBox="0 0 337.2 75.6" xmlns:v="https://vecta.io/nano"><path d="M74.3 45.1c0 2.5-2 4.1-5 4.1s-5-1.6-5-4.1v-8.6h2.3v7.9c0 1.5.7 2.5 2.6 2.5s2.6-1 2.6-2.5v-7.9h2.3v8.6zm15.2-8.6h2.1l5.2 8.8v-8.8H99v12.3h-2.1L91.7 40v8.8h-2.1V36.5zm24.9 0h2.3v12.3h-2.3V36.5zm16.5 0h2.4l2.7 9.8 2.7-9.8h2.4l-3.6 12.3h-3.2c.1 0-3.4-12.3-3.4-12.3zm23.7 0h8.7v2.1h-6.4v2.8h5.9v2.1h-5.9v3.2h6.9v2.1h-9.2V36.5zm23.8 0h5.1c2.6 0 4.2 1.5 4.2 3.7 0 2.8-1.8 3.5-2.4 3.7l2.8 5h-2.7l-2.4-4.6h-2.2v4.6h-2.3V36.5zm2.4 5.8h2.5c1.2 0 2.1-.7 2.1-1.8s-.7-1.8-2.3-1.8h-2.2v3.6zm22.7 2.9c.9 1.2 2.2 1.9 3.7 1.9 1.1 0 2.6-.4 2.6-1.6 0-1-.9-1.2-2.6-1.6l-1.4-.3c-2-.4-3.7-1.2-3.7-3.5 0-2.6 2.5-3.8 4.8-3.8 2.1 0 3.9.8 5.1 2.5l-1.9 1.5c-.6-1.1-1.8-1.8-3.2-1.8-1.3 0-2.3.5-2.3 1.4 0 1 1.2 1.2 2.6 1.6l1.5.4c1.8.4 3.6 1.2 3.6 3.5 0 3-2.9 4-5.4 4-2.1 0-4.2-.9-5.4-2.6l2-1.6zm23-8.7h2.3v12.3h-2.3V36.5zm20.1 2.1h-3.4v-2.1h9.1v2.1h-3.4v10.2h-2.3c0 0 0-10.2 0-10.2zm19.9 5.5l-4.1-7.6h2.6l2.7 5.1 2.7-5.1h2.6l-4.1 7.6v4.8h-2.3c-.1 0-.1-4.8-.1-4.8zM64.3 9c0-.7-.1-2.1-.9-3.2h11.2c4.2 0 10.1 1.2 10.1 7.9s-5.9 7.9-10.1 7.9h-2.9v4.9c0 .7.1 2.1.9 3.2h-9.1c.8-1.1.9-2.6.9-3.2V9zm7.3 7.4h1.8c1.5 0 3.9-.3 3.9-2.8 0-2.4-2.3-2.8-3.9-2.8h-1.8v5.6zm14 1.3c0-7 5.7-12.5 13.1-12.5 7.3 0 13.1 5.5 13.1 12.5S106 30.2 98.7 30.2c-7.3-.1-13.1-5.6-13.1-12.5zM98.7 25c3.2 0 5.7-2.8 5.7-7.3s-2.5-7.3-5.7-7.3-5.7 2.8-5.7 7.3 2.5 7.3 5.7 7.3zM114 9c0-.7-.1-2.1-.9-3.2h9.1c-.8 1.1-.9 2.6-.9 3.2v17.4c0 .7.1 2.1.9 3.2h-9.1c.8-1.1.9-2.6.9-3.2V9zm11 20.7c.9-1.1.9-2.6.9-3.2V9c0-.7-.1-2.1-.9-3.2h8.4l9.8 13.6h.1V9c0-.7-.1-2.1-.9-3.2h6.9c-.9 1.1-.9 2.6-.9 3.2v20.7h-5.9l-11.3-15.3h-.1v12.1c0 .7.1 2.1.9 3.2h-7zm32.9-18.9h-3.5c-.7 0-2.1 0-3.2.9v-6H172v5.9c-1.1-.8-2.6-.9-3.2-.9h-3.5v15.6c0 .7.1 2.1.9 3.2H157c.8-1.1.9-2.6.9-3.2V10.8zM180 9c0-.7-.1-2.1-.9-3.2h11.2c4.2 0 10.1 1.2 10.1 7.9s-5.9 7.9-10.1 7.9h-2.9v4.9c0 .7.1 2.1.9 3.2H179c.8-1.1.9-2.6.9-3.2L180 9zm7.3 7.4h1.8c1.5 0 3.9-.3 3.9-2.8 0-2.4-2.3-2.8-3.9-2.8h-1.8v5.6zM205 8.5c.1-.4.4-.9.4-1.4 0-.4-.4-.9-.6-1.4h8.1l8.4 21.8c.4 1 1 1.5 1.4 2.1h-9.5c.3-.4.6-.8.6-1.3 0-.3-.1-.7-.2-1l-1.2-3.4h-8l-1.2 3.4c-.1.3-.1.6-.1 1s.3 1 .6 1.3h-7.5c.7-.7 1.1-1.2 1.5-2.3L205 8.5zm.8 11h5.1l-2.5-6.9-2.6 6.9zM225.1 9c0-.7-.1-2.1-.9-3.2h11.2c4.6 0 10.6.1 10.6 7.6 0 3.7-2.9 5.4-4 5.9l4 8.5c.4.8.7 1.4 1.3 2h-8.5l-3.5-8.5h-2.9v5.3c0 .7.1 2.1.9 3.2h-9.1c.8-1.1.9-2.6.9-3.2V9zm7.5 7h1.8c3 0 4.5-.3 4.5-2.4 0-2.6-1.6-2.8-4.5-2.8h-1.8V16zm17.7-7c0-.7-.1-2.1-.9-3.2h9.1c-.8 1.1-.9 2.6-.9 3.2v6.2h.1l5.9-7.3c.3-.3.6-.8.6-1.2s-.3-.7-.4-.9h9.3c-.7.5-1.3.9-2.5 2.3l-4.6 5.3 6.6 14.5c.3.7.7 1.3 1.2 1.9h-8.4l-4.6-11.2-3.1 3.7v4.3c0 .7.1 2.1.9 3.2h-9.1c.8-1.1.9-2.6.9-3.2L250.3 9z" fill="#6d8d24"/></svg>