<?xml version="1.0" encoding="utf-8"?>
<!-- Generator: Adobe Illustrator 24.3.0, SVG Export Plug-In . SVG Version: 6.00 Build 0)  -->
<svg version="1.1" id="Layer_1" xmlns:v="https://vecta.io/nano"
	 xmlns="http://www.w3.org/2000/svg" xmlns:xlink="http://www.w3.org/1999/xlink" x="0px" y="0px" viewBox="0 0 252 252"
	 style="enable-background:new 0 0 252 252;" xml:space="preserve">
<style type="text/css">
	.st0{fill:#FFFFFF;}
	.st1{fill:#022956;}
</style>
<ellipse class="st0" cx="126" cy="126" rx="123.5" ry="87.6"/>
<g id="Xk63pm_1_">
	<g>
		<path class="st1" d="M89.5,50.6c0.2,0,0.3,0,0.5-0.1c0.7,0.1,1.4,0,1.9-0.5c0.2,0,0.4-0.1,0.6-0.1c0.8,0.1,1.6-0.1,2.3-0.5
			c0.2,0.1,0.4,0.1,0.6-0.1c0.9,0.2,1.7-0.1,2.6-0.5c0.3,0.1,0.6,0.1,0.9-0.1c1,0.2,1.9-0.3,2.8-0.4c0.2,0.1,0.4,0.1,0.6-0.1
			c4-0.4,8-0.7,12-1.1c0.8-0.1,1.7,0.1,2.5-0.3c0.8,0.2,1.7,0.1,2.5,0c4.5,0,9,0,13.6,0c0.8,0.2,1.6,0.2,2.5,0
			c3.3,0.6,6.6,0.6,9.9,0.9c0.2,0.2,0.4,0.2,0.6,0.1c1.3,0.2,2.6,0.6,4,0.5c0.2,0,0.4,0,0.6,0.1c0.9,0.2,1.8,0.6,2.8,0.4
			c0.3,0.2,0.6,0.2,0.9,0.1c0.8,0.3,1.6,0.6,2.6,0.5c0.2,0.1,0.4,0.2,0.6,0.1c0.7,0.4,1.4,0.6,2.3,0.5c0.2,0.1,0.4,0.2,0.6,0.1
			c0.6,0.5,1.2,0.6,1.9,0.5c0.2,0,0.4,0.1,0.6,0.1c2.4,0.9,4.9,1.4,7.4,1.9c0.2,0.2,0.4,0.2,0.6,0.1c0.4,0.3,0.8,0.6,1.4,0.4
			c0.2,0,0.4,0.1,0.6,0.1c0.3,0.3,0.6,0.4,1,0.5c6.1,1.8,11.9,4.1,17.7,6.7c3.7,1.7,7.1,3.7,10.7,5.5c0.1,0,0.2,0.1,0.3,0.1
			c0.5,0.6,1.2,1,2,1.2c0.1,0.2,0.2,0.3,0.4,0.3c2.1,1.5,4.2,3.1,6.5,4.4c0.1,0.1,0.2,0.1,0.2,0.2c1.1,1.1,2.4,2.1,3.8,2.9
			c0.1,0.1,0.2,0.1,0.3,0.2c0.2,0.5,0.6,0.8,1.2,1c0.2,0.4,0.5,0.6,0.9,0.8c0.5,0.7,1.1,1.4,2,1.8c0.1,0.3,0.3,0.5,0.6,0.5
			c0.1,0.3,0.3,0.5,0.6,0.6c0,0,0,0,0,0c0.1,0.3,0.3,0.5,0.6,0.6l0,0c0.4,0.7,1,1.3,1.7,1.7l0,0c0.1,0.3,0.2,0.5,0.5,0.6
			c0.1,0.1,0.2,0.2,0.3,0.3c0,0.4,0.3,0.5,0.6,0.6c0.1,0.3,0.2,0.5,0.5,0.6c0.4,0.9,1,1.5,1.8,2c0.1,0.4,0.3,0.7,0.7,0.8
			c0.5,1,1.2,1.8,1.9,2.5l0,0.1l0.1,0c0.3,0.7,0.7,1.3,1.3,1.8c0.1,0.1,0.1,0.2,0.2,0.3c0,0.3,0.2,0.5,0.4,0.6
			c0.1,0.1,0.1,0.2,0.2,0.3c0,0.3,0.1,0.5,0.4,0.6c0.1,0.1,0.1,0.2,0.2,0.3c0.1,0.6,0.5,1.1,0.9,1.5c0.1,0.1,0.1,0.2,0.2,0.3
			c1.1,2.2,2.3,4.3,3.4,6.5c1.6,3.2,2.6,6.6,3.8,9.9c-0.1,0.2,0,0.4,0.1,0.6c0.5,2.4,0.9,4.9,1.4,7.3c-0.1,0.4-0.1,0.7,0.1,1.1
			c0,3.6,0,7.1,0,10.7c-0.1,0.3-0.2,0.7-0.1,1.1c-0.7,3.1-1.3,6.2-2,9.3c-0.2,0.2-0.2,0.4-0.2,0.6c-0.5,0.6-0.6,1.4-0.8,2.1
			c-1,3.1-2.6,6.1-3.9,9.1c-0.1,0.2-0.2,0.4-0.3,0.5c-0.9,1.1-1.5,2.2-2.1,3.5c-0.1,0.1-0.1,0.2-0.2,0.3c-0.3,0.1-0.4,0.3-0.3,0.6
			c-0.1,0.1-0.2,0.2-0.2,0.3c-0.2,0.1-0.4,0.3-0.4,0.6c-0.1,0.1-0.1,0.2-0.2,0.3c-0.6,0.4-1,1.1-1.2,1.8l-0.1,0c0,0,0,0.1,0,0.1
			c-0.7,0.6-1.2,1.3-1.6,2.1c-0.1,0.1-0.1,0.2-0.2,0.3c-0.6,0.4-1,0.8-1.2,1.5c-0.3,0.1-0.5,0.3-0.5,0.6c-0.5,0.2-0.8,0.6-1,1.2
			l-0.1,0c0,0,0,0.1,0,0.1c-0.3,0-0.4,0.1-0.4,0.4c-0.3,0.1-0.5,0.2-0.5,0.5c-0.3,0.1-0.5,0.3-0.6,0.6c0,0,0,0,0,0
			c-1.5,1.2-2.8,2.6-4.1,4c-0.4,0.1-0.7,0.4-0.8,0.7c-0.7,0.3-1.1,0.8-1.5,1.3c0,0,0,0,0,0c-0.4,0.2-0.9,0.4-1,0.9l-0.1,0l0,0.1
			c-0.5,0.1-0.7,0.4-0.9,0.7c-0.3,0-0.4,0.2-0.5,0.4c-0.8,0.4-1.5,0.9-2,1.6c-0.3,0-0.5,0.2-0.6,0.5c-0.7,0.3-1.3,0.7-1.8,1.3
			c-0.1,0.1-0.1,0.1-0.2,0.2c-1.6,0.8-3,1.8-4.4,2.9c-0.1,0.1-0.2,0.1-0.3,0.2c-0.8,0.2-1.5,0.6-2,1.2c-0.1,0-0.2,0.1-0.3,0.1
			c-0.8,0.5-1.7,0.9-2.5,1.4c-2.8,1.5-5.6,3-8.3,4.5c-5.4,2.3-10.7,4.6-16.3,6.4c-6.1,2-12.3,3.5-18.6,4.8
			c-13,2.6-26.2,3.5-39.4,2.9c-7.6-0.3-15.2-0.9-22.6-2.6c-11.8-2.8-22.8-7.5-32.8-14.5c-7.8-5.5-14.3-12.1-19-20.4
			c-4.5-7.8-6.9-16.3-7.5-25.3c-0.5-7.1,0.1-14,1.9-20.8c2.5-9.4,7-17.8,13.3-25.3c7.6-9.2,16.9-16.3,27-22.5
			c2.5-1.6,5.1-3.1,7.6-4.6c0.5-0.3,1.4-0.5,1.1-1.1c-0.3-0.7-1.1-0.2-1.7-0.1c-4.7,1.1-9.4,2.4-13.9,4.1
			c-10.4,3.8-20.2,8.7-28.9,15.5c-9.3,7.3-16.4,16.2-20.4,27.5c-2.4,6.7-3.3,13.7-3.2,20.8c0.2,11,3.1,21.3,8.4,31
			c0.2,0.3,0.4,0.6,0.6,0.9c-0.3,0.6,1.3,1.3-0.1,1.8c-0.2-0.4-0.5-0.7-0.9-0.9c-0.1-0.3-0.1-0.6-0.5-0.6c-0.2-0.3-0.3-0.7-0.7-0.8
			c-0.2-0.7-0.7-1.1-1.3-1.5c0-0.3-0.2-0.5-0.5-0.6c0-0.4-0.3-0.7-0.7-0.8c-0.1-0.3-0.2-0.5-0.5-0.6c-0.1-0.5-0.4-0.9-0.9-1.2
			c-0.1-0.1-0.1-0.2-0.2-0.3c-0.3-0.7-0.7-1.3-1.3-1.7c-0.1-0.1-0.1-0.2-0.2-0.3c-1-1.7-2-3.4-3.2-5c0-0.4-0.3-0.8-0.6-1
			c-1.3-2.9-2.8-5.6-3.8-8.6c-0.9-2.6-1.6-5.2-2.5-7.8c0-0.2-0.1-0.4-0.1-0.7c0.1-0.7-0.1-1.4-0.4-2c0.1-0.4,0.1-0.8-0.1-1.2
			c0.1-1.3-0.3-2.5-0.4-3.7c0.1-1,0.1-2-0.1-2.9c0.2-0.9,0.2-1.7,0-2.6c0.2-1,0.2-1.9,0.1-2.9c0.2-1.2,0.6-2.4,0.4-3.7
			c0.2-0.3,0.2-0.6,0.1-0.9c0.5-1.6,0.8-3.2,1-4.8c0-0.1,0-0.3,0.1-0.4c0.9-1.7,1.2-3.7,1.9-5.5c1-2.3,2-4.7,3-7.1
			c0.2-0.1,0.3-0.2,0.3-0.4c0.4-0.5,0.8-0.9,0.8-1.6c0.2-0.1,0.3-0.2,0.3-0.5c1.3-2,2.6-3.9,3.8-5.9c0.3-0.1,0.4-0.3,0.4-0.6
			c0.3-0.1,0.4-0.3,0.4-0.5c0.3-0.1,0.4-0.3,0.5-0.6c0.8-0.8,1.6-1.6,2.1-2.6c0.1-0.1,0.2-0.2,0.2-0.3c0.6-0.4,1.1-0.8,1.3-1.5
			c0.4-0.1,0.6-0.4,0.7-0.8c1.8-1.7,3.6-3.4,5.2-5.2c0.3-0.1,0.5-0.2,0.6-0.5c0.7-0.3,1.3-0.9,1.7-1.5c0.3,0,0.5-0.2,0.6-0.5
			c0.7-0.2,1.1-0.7,1.5-1.2c0.1-0.1,0.2-0.1,0.2-0.2c0.4-0.1,0.7-0.3,0.9-0.7c0.1-0.1,0.2-0.1,0.3-0.2c0.8-0.3,1.4-0.8,2-1.5
			c0.3,0,0.5-0.2,0.6-0.4c1-0.4,1.9-1.1,2.6-1.9c0.1-0.1,0.2-0.2,0.3-0.2c1.7-0.8,3.2-1.8,4.6-2.9c0.1-0.1,0.2-0.1,0.3-0.2
			c1-0.3,1.8-0.8,2.6-1.5c0.4,0,0.7-0.2,0.9-0.5c0.5-0.1,0.9-0.2,1.2-0.7c0.2-0.1,0.4-0.2,0.6-0.3c0.1,0,0.3,0,0.4-0.1
			c6.3-3.4,12.8-6.2,19.6-8.5c1.9-0.6,3.9-1,5.6-2c0.2,0,0.4-0.1,0.6-0.1c0.6,0.2,1-0.2,1.4-0.4c0.2,0.1,0.4,0,0.6-0.1
			c0.7,0.2,1.2-0.2,1.8-0.4C85.5,51.6,87.6,51.5,89.5,50.6z M146,105.4c0.5,0.5,1,0.4,1.4,0.4c9.9,0.4,19.4,2.7,28.3,7
			c5.9,2.9,11.5,6.2,16.1,11c3.5,3.6,6,7.7,6.7,12.8c1.1,8.3-3.9,14.3-9.3,17.3c-10.6,5.9-21.7,10.7-33,14.8
			c-3.2,1.2-6.5,2.5-9.8,3.2c-5,1.1-10.2,1.9-15.3,2.5c-9.2,1-18.4,1.3-27.5-0.6c-9.7-2.1-18.1-6.3-24.1-14.4
			c-0.2-0.3-0.3-0.7-0.7-0.6c-0.5,0.1-0.4,0.6-0.4,1c0,2.3,0.3,4.5,0.9,6.7c2.6,10.5,10.9,15.9,20.3,16.4c8.6,0.4,17.1-0.8,25.4-2.8
			c7.1-1.7,14.1-3.8,21.1-5.6c1.4-0.4,2.7-0.8,4.2-0.5c5.3,0.9,10.6,1.7,15.9,2.5c4,0.6,8.1,1.2,12.1,1.9c3,0.5,6.1,1,9.2,0.9
			c5.1-0.1,8.9-2.3,11.6-6.6c2.9-4.8,5.3-9.8,7.3-15c0.2-0.6,0.9-1.4,0.4-2c-0.6-0.6-1.3,0.2-2,0.5c-9.1,3.6-18.4,6.8-27.7,10
			c-1.5,0.5-3.1,1-4.6,1.6c-0.8,0.3-1.7,0.2-2-0.6c-0.3-0.9,0.7-0.8,1.2-1c4.4-1.9,8.9-3.7,13.4-5.7c9.6-4.3,19-9,28.1-14.2
			c5.3-3,9.5-7,11.6-12.8c1.9-5,1.6-9.6-2.3-13.8c-2.4-2.6-4.9-5.1-7.7-7.3c-5.2-4.1-10.9-7.5-16.6-10.9c-7-4.2-13.7-8.6-18.1-15.7
			c-0.7-1.1-1.6-1.9-2.5-2.7c-0.8-0.7-1.7-1.4-2.8-1.8c-14-5.4-28.2-10.2-43-12.9c-2.6-0.5-4.4-1.5-5.6-3.8
			c-0.8-1.5-1.8-2.8-2.8-4.2c-1.9-2.8-3.9-5.6-7-7.1c-4.1-2-5.3-2-8.8,1.1c-1,0.9-1.8,1.9-2.5,3c-1.8,2.8-3.1,5.7-4.2,8.8
			c-2.4,6.5-4.3,13.1-5.8,19.9c-1.1,5.1-2,10.3-2.7,15.5c0,0.3-0.2,0.6,0.1,0.8c0.3,0.2,0.5-0.1,0.8-0.2c0.2-0.1,0.5-0.3,0.7-0.5
			c12.2-8.1,25.7-12.6,40.1-14.9c3.8-0.6,7.5-1,11.3-1.2c5.4-0.3,10.7-0.9,16.1-0.8c3.7,0.1,7.5,0.5,11.1,1.6c3,0.9,5,3.1,6.6,5.5
			c2.5,3.6,5.7,6.2,9.4,8.5c8.7,5.4,17.6,10.5,25.5,17.3c2.3,2,4.7,4,6.2,6.7c1,1.7,1.8,3.6,1.3,5.6c-0.4,1.6-1,3.1-1.6,4.6
			c-1.4,3.4-3.5,6.2-7,7.7c-0.4,0.2-0.8,0.5-1.2,0.1c-0.4-0.3,0-0.7,0-1.1c0.8-4.5,0.5-8.9-2.1-12.8c-4-5.9-9.4-10.4-15.5-13.9
			c-7.5-4.3-15.4-7.3-23.9-8.9c-1.1-0.2-1.1-0.6-0.8-1.5c0.8-2.3,0.5-4.6-0.9-6.6c-0.6-0.9-1.4-1.3-2.6-0.7c-2.1,1-4.2,1.9-6.3,2.8
			C155.1,101.3,150.7,103.3,146,105.4z"/>
	</g>
</g>
</svg>
