<svg xmlns="http://www.w3.org/2000/svg" viewBox="0 0 600 600" xmlns:v="https://vecta.io/nano"><path d="M592 299.8C592.3 140.1 463 9.4 303.6 7.3 141.4 5.2 9.3 135.8 7.3 296c-2 162 128.6 294.1 288.8 296 163.2 1.9 296.1-130.6 295.9-292.2z" fill="#fefefe"/><path d="M592 299.8c.2 161.6-132.7 294.1-295.9 292.2C135.9 590.1 5.3 458 7.3 296 9.3 135.8 141.4 5.2 303.6 7.3 463 9.4 592.3 140.1 592 299.8zM299.6 585.6c158 0 285.8-127.7 286-285.7.2-157.9-127.8-286.1-285.5-286.2-158.3 0-286.3 127.7-286.3 285.7-.1 158.2 127.8 286.2 285.8 286.2z" fill="#272424"/><path d="M299.9 586C141.8 586 13.9 458 14 299.8 14.1 141.7 142.1 14 300.4 14 458.2 14 586.1 142.3 586 300.2c-.2 158-128.1 285.8-286.1 285.8zm-.1-46.9c131.8.1 237.7-106.6 238.6-236.5.9-132.7-106.3-240.2-238.1-240.3C168.2 62.2 62.4 169 61.6 299.2 60.8 431.8 168.3 539 299.8 539.1z" fill="#a4abaf"/><path d="M529.4 302.1c-1.5-.7-2.7-1-4-1.1-7.9-.6-15.7-2-23.3-3.9-25.8-6.6-47.1-19.8-61.9-42.4-13-19.8-18.3-42-20.3-65.2-.2-1.9.2-3.9-1-6.1-1.3 15.5-3.6 30.2-8 44.5-7.7 25.3-22.5 44.8-46.8 56.4-15.5 7.4-32 11.3-48.7 14.2l-12.8 2c10.5 1.3 20.9 2.6 31.1 5.1 29.1 7.3 52.4 22.6 67.5 49 9.5 16.7 14.4 34.9 16.8 53.8.5 3.7.9 7.4 1.3 11.1 3.7-77.3 63.5-112.2 110.1-117.4zM186.9 419.4c.4 1.1 1.2 1 2 1 8.3.5 16.6 1.6 24.7 3.3 20.9 4.4 39.9 12.7 55.3 28 14.6 14.5 23.1 32.4 28.1 52.1 2.7 10.5 4 21.1 5.3 31.9 1.6-29.8 10.7-56.5 32.2-78 21.2-21.3 47.3-32.5 76.9-36.3-.5-.9-1.2-.8-1.8-.8-6-.6-12-1.5-17.9-2.8-45-10-74-36.8-85.6-81.8-2.6-10.1-3.5-20.6-5.4-30.8-.2.5-.3 1.1-.4 1.6-1.4 13.1-3.5 26.1-7.2 38.8-8.7 30.3-27.3 51.5-57.2 62.5-15.8 5.8-32.2 9-49 11.3zm113.7-122.8c7-68.3 47.8-103.4 111.6-115.1a175.2 175.2 0 0 1-28.3-4.6c-39.1-10-65-33.8-76.3-72.8-3.5-12.1-5.3-24.4-6.1-37.5-.9 2-.9 3.6-1 5.2-1.3 12.8-3.5 25.5-7.2 37.9-7.9 26-23.1 45.7-48.2 57.1-12.8 5.8-26.2 9.5-39.9 12.1-6.8 1.3-13.6 2.3-20.4 3.4 11.8 1.2 23.4 2.7 34.9 5.6 34.7 9.1 58.9 30 71.5 63.8 5.2 14.5 7.9 29.5 9.4 44.9zm-183.5-16.5c.6 0 1.3-.1 1.9 0 3.1.6 3.6-.9 3.3-3.6-.8-6-4.7-10.4-10.6-11.7-6.3-1.4-12.5 1-15.6 6-4.9 7.9-2.2 17.6 6.1 22.3 2.3 1.3 4.9 2.2 7.1 3.8 1.8 1.3 2.6 3.1 2.6 5.3 0 2.1-.7 3.6-3 3.9-2.1.2-4.3-.4-4.3-2.8.1-4.7-2.8-4.5-6-4.2-1 .1-2 .1-2.9 0-1.3-.1-1.8.4-2 1.8-.9 7.8 3.1 13.6 10.7 15.4 6.4 1.5 14-1.1 16.4-5.8 4.3-8.5 3.1-19.6-7.5-24-1.4-.6-2.8-1.2-4.1-1.9-1.6-.7-3.1-1.6-4-3.2-1-1.6-1-3.3 0-4.9.9-1.4 2.4-1.8 4-1.7 2.1.2 2.7 1.7 2.8 3.4s.9 1.9 2.3 1.8c.8.1 1.8.1 2.8.1zm26.1 18v7.8c.1 5.3 2 8.6 5.7 10 5.3 2 12.7.8 15.6-2.4 2.1-2.5 1.9-5.4 1.6-8.3-.1-1.4-1.7-1.1-2.4-.8-1.9.6-4.6-1.8-5.7 1.6-.7 2.2-2.5 2.5-4.5 2-3.1-.8-2.4-3.4-2.5-5.6-.1-2.4 1.7-1.7 3-1.7 3.4-.1 6.7-.1 10.1 0 1.7.1 2.3-.4 2.2-2.2-.1-2.2 0-4.3 0-6.5 0-9.1-6.9-14.1-15.7-11.4-4.8 1.5-7.3 4.8-7.3 9.8-.1 2.5-.1 5.1-.1 7.7zm26.3-.1h.2c0 3.6-.2 7.1 0 10.7.2 3.3 2 5.8 5 7 4.4 1.6 8.9 1.7 13.3-.3 3.6-1.7 5.6-6.4 4.4-10.2-.1-.4-.2-.9-.7-.9-2.1-.1-4.1-.1-6.2-.1-1.6 0-.9 1.8-1.6 2.4-.5.4-1 .9-1.5 1.1-1.5.6-3.1.4-4.2-.8-1.5-1.6-1-3.7-.7-5.6.2-1.7 1.9-.7 3-.9 1.2-.2 2.4 0 3.6 0 2.7-.1 6.3.9 7.8-.5 1.8-1.6.5-5.3.6-8 .1-9.3-6.9-14.3-15.9-11.5-4.5 1.4-7 4.6-7.1 9.3-.1 2.9 0 5.6 0 8.3zm38.4.1h0c.1 3.4-.1 6.7.1 10 .2 3.7 2 6.5 5.5 7.7 3.6 1.3 7.4 1.4 11.2.2 5-1.6 7.3-5.6 6.1-10.6-.1-.4-.3-1.1-.5-1.1-2-.1-4.1-.1-6.2-.2-1.8-.1-1.1 1.5-1.7 2.3-1.2 1.7-2.8 1.9-4.6 1.3-3.1-1-2-3.7-2.1-5.8-.1-2.3 1.7-1.4 2.8-1.4 3.3-.1 6.7-.1 10.1 0 1.7.1 2.3-.4 2.2-2.2-.1-2.8-.1-5.6 0-8.4 0-2.7-.8-5.1-2.9-6.9-3.9-3.3-8.3-3.9-13.1-2.4-4.6 1.4-6.9 4.6-7 9.4.1 2.7.1 5.4.1 8.1zm64.6-6.6c1-.9 3.7 1.6 3.8-1.5.1-3.3-.9-6.4-4-8.4-4.4-2.9-10.6-3-15 0-3.8 2.6-4.5 6.4-3.9 10.6.5 4 2.6 6.8 6.7 7.7 1.9.4 3.8.7 5.5 1.8 1.2.8 2.3 1.7 2.3 3.3 0 1.1-.7 1.7-1.8 2-1.6.5-3.6.5-4.1-.8-1.7-3.9-4.8-2.1-7.4-2.4-1.5-.2-1.7.7-1.7 2 0 6.6 4.5 10.7 12 10.8 6.4.1 11.3-3.6 12-9.1.8-6.5-2.5-11.3-8.9-13.1-1.6-.4-3.2-.4-4.6-1.4-1.2-.8-1.6-2-1.2-3.4.4-1.3 1.2-2 2.6-2.2 1.3-.1 2.9.3 2.9 1.4.1 3.7 2.6 2.5 4.8 2.7zm-135.3-20.3c-3.2 1.7-6 2.9-8.4 4.7-1.8 1.3-1.6 4.9-5 4.5 0 2.3-.2 4.5-.1 6.8.1 1.7 1.7.7 2.6 1 1.4.4 1 1.5 1 2.4l.1 15.6c0 1.6 0 3.2.6 4.8 1.4 3.8 5.6 5.9 11.2 4.8 3.5-.7.7-4 1.5-5.9.2-.5 0-1.1 0-1.6-.1-1.6.7-3.6-2.3-3.4-1.2.1-1.2-1.3-1.2-2.3v-12c0-1.4.2-2.3 1.9-2.1 1.4.2 1.9-.4 1.9-1.9-.1-1.6 0-3.2-.1-4.9 0-.9 0-2-1.3-1.8-2.6.4-2.4-1.2-2.4-2.9v-5.8zm67.7 19.7v-18.8c0-6.7 0-6.6-6.7-6.8-2.4 0-3.1.5-3.1 3l.1 40.6c0 7.1 0 7 7.1 7 2.1 0 2.8-.5 2.7-2.7-.2-7.4-.1-14.8-.1-22.3zm38.6-7.1c1.1-3.9-.5-4.4-3-4.1-1 .1-2 .1-2.9 0-2.4-.3-3.4.4-3.3 3.2.2 8.7.1 17.3.1 26 0 7.1 0 7 7.2 6.9 1.8 0 2.4-.5 2.4-2.4l-.1-18.2c0-2.5.8-4.7 3.5-4.4 4.6.5 4.5-2.1 4.2-5.2-.1-.8.1-1.5 0-2.3-.2-1.2.7-2.9-.6-3.5-1.6-.7-3.4 0-4.8 1.2-.7.5-1.3 1.3-2.7 2.8z" fill="#fefefe"/><path d="M529.4 302.1c-46.6 5.2-106.4 40.1-110.1 117.4l-1.3-11.1c-2.5-18.9-7.3-37.1-16.8-53.8-15.1-26.5-38.4-41.8-67.5-49-10.2-2.5-20.6-3.8-31.1-5.1l12.8-2c16.8-2.9 33.3-6.8 48.7-14.2 24.3-11.6 39.1-31.1 46.8-56.4 4.4-14.3 6.7-29 8-44.5 1.2 2.2.8 4.2 1 6.1 2 23.2 7.3 45.5 20.3 65.2 14.8 22.6 36.2 35.7 61.9 42.4 7.7 2 15.4 3.3 23.3 3.9 1.3.1 2.5.4 4 1.1z" fill="#cb0a30"/><path d="M186.9 419.4c16.8-2.3 33.2-5.6 49-11.4 29.9-11 48.5-32.1 57.2-62.5 3.7-12.7 5.8-25.7 7.2-38.8.1-.5.1-1 .4-1.6 1.8 10.3 2.8 20.7 5.4 30.8 11.6 45 40.5 71.8 85.6 81.8 5.9 1.3 11.9 2.3 17.9 2.8.6.1 1.3-.1 1.8.8-29.6 3.8-55.7 15.1-76.9 36.3-21.4 21.5-30.6 48.2-32.2 78-1.2-10.7-2.6-21.4-5.3-31.9-5.1-19.7-13.5-37.6-28.1-52.1-15.4-15.3-34.4-23.6-55.3-28-8.2-1.7-16.4-2.9-24.7-3.3-.8.1-1.6.2-2-.9z" fill="#01348e"/><path d="M300.6 296.6c-1.5-15.4-4.2-30.4-9.6-44.9-12.6-33.8-36.8-54.7-71.5-63.8-11.4-3-23.1-4.5-34.9-5.6l20.4-3.4c13.7-2.6 27.2-6.3 39.9-12.1 25.1-11.4 40.3-31.2 48.2-57.1 3.7-12.4 5.9-25 7.2-37.9.2-1.6.2-3.2 1-5.2.8 13 2.6 25.4 6.1 37.5 11.3 39 37.2 62.9 76.3 72.8 9.7 2.5 19.5 4 28.3 4.6-63.6 11.7-104.4 46.8-111.4 115.1z" fill="#feb710"/><path d="M117.1 280.1c-1 0-2-.1-2.9 0-1.4.1-2.2-.2-2.3-1.8-.1-1.7-.8-3.2-2.8-3.4-1.6-.1-3.1.3-4 1.7-1 1.6-1 3.3 0 4.9 1 1.5 2.4 2.4 4 3.2l4.1 1.9c10.6 4.4 11.8 15.5 7.5 24-2.4 4.7-10 7.3-16.4 5.8-7.6-1.8-11.6-7.6-10.7-15.4.2-1.4.7-1.9 2-1.8 1 .1 2 .1 2.9 0 3.2-.3 6.1-.5 6 4.2 0 2.4 2.2 3 4.3 2.8 2.3-.2 3-1.8 3-3.9 0-2.2-.8-3.9-2.6-5.3-2.2-1.6-4.8-2.5-7.1-3.8-8.3-4.7-10.9-14.4-6.1-22.3 3.1-5 9.3-7.4 15.6-6 5.9 1.3 9.8 5.7 10.6 11.7.4 2.7-.1 4.2-3.3 3.6-.5-.2-1.2-.1-1.8-.1zm26.1 18v-7.8c.1-5.1 2.5-8.3 7.3-9.8 8.8-2.7 15.7 2.3 15.7 11.4 0 2.2-.1 4.3 0 6.5.1 1.8-.6 2.2-2.2 2.2-3.3-.1-6.7-.1-10.1 0-1.2 0-3-.7-3 1.7.1 2.2-.6 4.8 2.5 5.6 2 .5 3.8.2 4.5-2 1.1-3.4 3.8-1 5.7-1.6.7-.2 2.2-.6 2.4.8.3 2.9.5 5.9-1.6 8.3-2.9 3.3-10.2 4.4-15.6 2.4-3.8-1.4-5.7-4.7-5.7-10 .1-2.5.1-5.1.1-7.7zm11.9-4.9c1.2-.8 3.4 1 3.5-1.6.1-2.2-1.5-3.4-3.5-3.5-2.1-.1-3.6 1.1-3.6 3.3 0 3.1 2.5.9 3.6 1.8zm14.4 4.8v-8.1c.1-4.7 2.5-7.9 7.1-9.3 8.9-2.8 15.9 2.2 15.9 11.5 0 2.8 1.2 6.4-.6 8-1.5 1.4-5.1.4-7.8.5-1.2 0-2.4-.1-3.6 0-1 .1-2.8-.8-3 .9-.3 1.8-.9 4 .7 5.6 1.1 1.2 2.7 1.4 4.2.8.6-.2 1.1-.7 1.5-1.1.7-.7 0-2.4 1.6-2.4 2.1 0 4.1 0 6.2.1.5 0 .6.5.7.9 1.2 3.7-.8 8.5-4.4 10.2-4.4 2-8.9 1.9-13.3.3-3.1-1.1-4.8-3.7-5-7-.2-3.6 0-7.1 0-10.7-.1-.2-.2-.2-.2-.2zm11.7-4.6c.9-1.3 3.5 1.2 3.5-1.8 0-2.2-1.6-3.3-3.6-3.4-2.1 0-3.5 1.2-3.5 3.4 0 2.7 2.3.8 3.6 1.8zm26.7 4.7V290c.1-4.7 2.4-7.9 7-9.4 4.8-1.5 9.2-.9 13.1 2.4 2.1 1.8 2.9 4.2 2.9 6.9 0 2.8-.1 5.6 0 8.4.1 1.7-.5 2.2-2.2 2.2-3.3-.1-6.7-.1-10.1 0-1.1 0-2.9-.8-2.8 1.4.1 2.1-1 4.8 2.1 5.8 1.8.6 3.4.3 4.6-1.3.6-.8-.1-2.4 1.7-2.3 2 .1 4.1.1 6.2.2.2 0 .4.7.5 1.1 1.2 5-1.1 9-6.1 10.6-3.7 1.2-7.5 1-11.2-.2-3.5-1.2-5.3-4-5.5-7.7-.2-3.3-.1-6.7-.2-10h0zm11.6-4.9c1.1-1 3.6 1.3 3.6-1.8 0-2.2-1.6-3.3-3.6-3.3-2.1 0-3.5 1.4-3.5 3.5.1 2.7 2.4.8 3.5 1.6zm53-1.7c-2.1-.2-4.6 1-4.8-2.6-.1-1.1-1.6-1.6-2.9-1.4-1.3.1-2.2.9-2.6 2.2-.4 1.4 0 2.6 1.2 3.4 1.4 1 3.1 1 4.6 1.4 6.5 1.8 9.7 6.5 8.9 13.1-.7 5.5-5.6 9.1-12 9.1-7.5-.1-12-4.2-12-10.8 0-1.3.2-2.1 1.7-2 2.6.3 5.8-1.5 7.4 2.4.6 1.3 2.6 1.3 4.1.8 1-.3 1.7-.9 1.8-2 0-1.6-1-2.5-2.3-3.3-1.7-1-3.6-1.3-5.5-1.8-4.1-.9-6.2-3.7-6.7-7.7-.6-4.2.1-8 3.9-10.6 4.5-3 10.6-2.9 15 0 3 2 4.1 5.1 4 8.4-.1 3-2.8.5-3.8 1.4zm-135.3-20.3v5.8c0 1.7-.2 3.3 2.4 2.9 1.3-.2 1.3.9 1.3 1.8l.1 4.9c.1 1.4-.4 2.1-1.9 1.9-1.7-.2-1.9.6-1.9 2.1.1 4 0 8 0 12 0 1 0 2.3 1.2 2.3 3-.2 2.2 1.8 2.3 3.4 0 .5.2 1.1 0 1.6-.8 1.9 1.9 5.2-1.5 5.9-5.6 1.1-9.8-1-11.2-4.8-.6-1.6-.6-3.2-.6-4.8l-.1-15.6c0-.9.4-2-1-2.4-.9-.2-2.5.8-2.6-1-.2-2.3 0-4.5.1-6.8 3.4.3 3.2-3.2 5-4.5 2.4-1.8 5.2-3 8.4-4.7zm67.7 19.7l.1 22.4c0 2.2-.6 2.7-2.7 2.7-7.1 0-7.1 0-7.1-7l-.1-40.6c0-2.5.7-3.1 3.1-3 6.7.1 6.7 0 6.7 6.8v18.7zm38.6-7.1l2.7-2.9c1.4-1.2 3.2-1.9 4.8-1.2 1.3.6.4 2.3.6 3.5.1.7 0 1.5 0 2.3.3 3.1.4 5.7-4.2 5.2-2.7-.3-3.5 2-3.5 4.4l.1 18.2c0 1.9-.5 2.3-2.4 2.4-7.2.1-7.2.2-7.2-6.9l-.1-26c-.1-2.7.9-3.4 3.3-3.2 1 .1 2 .1 2.9 0 2.5-.3 4.1.3 3 4.2z" fill="#272424"/><path d="M155.1 293.2c-1.1-.9-3.6 1.3-3.6-1.8 0-2.2 1.5-3.4 3.6-3.3 2 .1 3.6 1.3 3.5 3.5-.1 2.7-2.4.9-3.5 1.6zm26.1.2c-1.3-.9-3.6.9-3.6-1.8 0-2.2 1.4-3.5 3.5-3.4 2 0 3.6 1.2 3.6 3.4 0 3-2.6.5-3.5 1.8zm38.3-.2c-1.2-.8-3.4 1-3.5-1.6-.1-2.1 1.4-3.5 3.5-3.5 2 0 3.6 1.1 3.6 3.3 0 3.2-2.5.9-3.6 1.8z" fill="#fefefe"/></svg>